  0
SECTION
  2
HEADER
  9
$ACADVER
  1
AC1009
  9
$DWGCODEPAGE
  3
ansi_1252
  9
$INSBASE
 10
0.0
 20
0.0
 30
0.0
  9
$EXTMIN
 10
0.275
 20
0.325
 30
0.0
  9
$EXTMAX
 10
92.275
 20
25.525
 30
0.0
  9
$LIMMIN
 10
0.0
 20
0.0
  9
$LIMMAX
 10
12.0
 20
9.0
  9
$ORTHOMODE
 70
     0
  9
$REGENMODE
 70
     1
  9
$FILLMODE
 70
     1
  9
$QTEXTMODE
 70
     0
  9
$MIRRTEXT
 70
     1
  9
$DRAGMODE
 70
     2
  9
$LTSCALE
 40
1.0
  9
$OSMODE
 70
    37
  9
$ATTMODE
 70
     1
  9
$TEXTSIZE
 40
0.2
  9
$TRACEWID
 40
0.05
  9
$TEXTSTYLE
  7
STANDARD
  9
$CLAYER
  8
0
  9
$CELTYPE
  6
BYLAYER
  9
$CECOLOR
 62
   256
  9
$DIMSCALE
 40
1.0
  9
$DIMASZ
 40
0.18
  9
$DIMEXO
 40
0.0625
  9
$DIMDLI
 40
0.38
  9
$DIMRND
 40
0.0
  9
$DIMDLE
 40
0.0
  9
$DIMEXE
 40
0.18
  9
$DIMTP
 40
0.0
  9
$DIMTM
 40
0.0
  9
$DIMTXT
 40
0.18
  9
$DIMCEN
 40
0.09
  9
$DIMTSZ
 40
0.0
  9
$DIMTOL
 70
     0
  9
$DIMLIM
 70
     0
  9
$DIMTIH
 70
     1
  9
$DIMTOH
 70
     1
  9
$DIMSE1
 70
     0
  9
$DIMSE2
 70
     0
  9
$DIMTAD
 70
     0
  9
$DIMZIN
 70
     0
  9
$DIMBLK
  1

  9
$DIMASO
 70
     1
  9
$DIMSHO
 70
     1
  9
$DIMPOST
  1

  9
$DIMAPOST
  1

  9
$DIMALT
 70
     0
  9
$DIMALTD
 70
     2
  9
$DIMALTF
 40
25.4
  9
$DIMLFAC
 40
1.0
  9
$DIMTOFL
 70
     0
  9
$DIMTVP
 40
0.0
  9
$DIMTIX
 70
     0
  9
$DIMSOXD
 70
     0
  9
$DIMSAH
 70
     0
  9
$DIMBLK1
  1

  9
$DIMBLK2
  1

  9
$DIMSTYLE
  2
STANDARD
  9
$DIMCLRD
 70
     0
  9
$DIMCLRE
 70
     0
  9
$DIMCLRT
 70
     0
  9
$DIMTFAC
 40
1.0
  9
$DIMGAP
 40
0.09
  9
$LUNITS
 70
     2
  9
$LUPREC
 70
     4
  9
$SKETCHINC
 40
0.1
  9
$FILLETRAD
 40
0.5
  9
$AUNITS
 70
     0
  9
$AUPREC
 70
     0
  9
$MENU
  1
.
  9
$ELEVATION
 40
0.0
  9
$PELEVATION
 40
0.0
  9
$THICKNESS
 40
0.0
  9
$LIMCHECK
 70
     0
  9
$CHAMFERA
 40
0.0
  9
$CHAMFERB
 40
0.0
  9
$SKPOLY
 70
     0
  9
$TDCREATE
 40
2454910.5
  9
$TDUPDATE
 40
2456860.894306481
  9
$TDINDWG
 40
0.0000000116
  9
$TDUSRTIMER
 40
0.0000000116
  9
$USRTIMER
 70
     1
  9
$ANGBASE
 50
0.0
  9
$ANGDIR
 70
     0
  9
$PDMODE
 70
     0
  9
$PDSIZE
 40
0.0
  9
$PLINEWID
 40
0.0
  9
$COORDS
 70
     1
  9
$SPLFRAME
 70
     0
  9
$SPLINETYPE
 70
     6
  9
$SPLINESEGS
 70
     8
  9
$ATTDIA
 70
     0
  9
$ATTREQ
 70
     1
  9
$HANDLING
 70
     1
  9
$HANDSEED
  5
58F
  9
$SURFTAB1
 70
     6
  9
$SURFTAB2
 70
     6
  9
$SURFTYPE
 70
     6
  9
$SURFU
 70
     6
  9
$SURFV
 70
     6
  9
$UCSNAME
  2

  9
$UCSORG
 10
0.0
 20
0.0
 30
0.0
  9
$UCSXDIR
 10
1.0
 20
0.0
 30
0.0
  9
$UCSYDIR
 10
0.0
 20
1.0
 30
0.0
  9
$PUCSNAME
  2

  9
$PUCSORG
 10
0.0
 20
0.0
 30
0.0
  9
$PUCSXDIR
 10
1.0
 20
0.0
 30
0.0
  9
$PUCSYDIR
 10
0.0
 20
1.0
 30
0.0
  9
$USERI1
 70
     0
  9
$USERI2
 70
     0
  9
$USERI3
 70
     0
  9
$USERI4
 70
     0
  9
$USERI5
 70
     0
  9
$USERR1
 40
0.0
  9
$USERR2
 40
0.0
  9
$USERR3
 40
0.0
  9
$USERR4
 40
0.0
  9
$USERR5
 40
0.0
  9
$WORLDVIEW
 70
     1
  9
$SHADEDGE
 70
     3
  9
$SHADEDIF
 70
    70
  9
$TILEMODE
 70
     1
  9
$MAXACTVP
 70
    64
  9
$PLIMCHECK
 70
     0
  9
$PEXTMIN
 10
1.000000000000000E+20
 20
1.000000000000000E+20
 30
1.000000000000000E+20
  9
$PEXTMAX
 10
-1.000000000000000E+20
 20
-1.000000000000000E+20
 30
-1.000000000000000E+20
  9
$PLIMMIN
 10
0.0
 20
0.0
  9
$PLIMMAX
 10
12.0
 20
9.0
  9
$UNITMODE
 70
     0
  9
$VISRETAIN
 70
     1
  9
$PLINEGEN
 70
     0
  9
$PSLTSCALE
 70
     1
  0
ENDSEC
  0
SECTION
  2
TABLES
  0
TABLE
  2
VPORT
 70
     1
  0
VPORT
  2
*ACTIVE
 70
     0
 10
0.0
 20
0.0
 11
1.0
 21
1.0
 12
10.42990654205607
 22
4.5
 13
0.0
 23
0.0
 14
0.5
 24
0.5
 15
0.5
 25
0.5
 16
0.0
 26
0.0
 36
1.0
 17
0.0
 27
0.0
 37
0.0
 40
9.0
 41
1.972972972850329
 42
50.0
 43
0.0
 44
0.0
 50
0.0
 51
0.0
 71
     0
 72
   100
 73
     1
 74
     3
 75
     0
 76
     0
 77
     0
 78
     0
  0
ENDTAB
  0
TABLE
  2
LTYPE
 70
     2
  0
LTYPE
  2
CONTINUOUS
 70
     0
  3
Solid line
 72
    65
 73
     0
 40
0.0
  0
LTYPE
  2
CONTINUOUS2
 70
     0
  3
Solid Line
 72
    65
 73
     0
 40
0.0
  0
ENDTAB
  0
TABLE
  2
LAYER
 70
     2
  0
LAYER
  2
0
 70
     0
 62
     7
  6
CONTINUOUS
  0
LAYER
  2
SCAN
 70
     0
 62
     1
  6
CONTINUOUS
  0
ENDTAB
  0
TABLE
  2
STYLE
 70
     1
  0
STYLE
  2
STANDARD
 70
     0
 40
0.0
 41
1.0
 50
0.0
 71
     0
 42
0.2
  3
txt
  4

  0
ENDTAB
  0
TABLE
  2
VIEW
 70
     0
  0
ENDTAB
  0
TABLE
  2
UCS
 70
     0
  0
ENDTAB
  0
TABLE
  2
APPID
 70
     1
  0
APPID
  2
ACAD
 70
     0
  0
ENDTAB
  0
TABLE
  2
DIMSTYLE
 70
     1
  0
DIMSTYLE
  2
STANDARD
 70
     0
  3

  4

  5

  6

  7

 40
1.0
 41
0.18
 42
0.0625
 43
0.38
 44
0.18
 45
0.0
 46
0.0
 47
0.0
 48
0.0
140
0.18
141
0.09
142
0.0
143
25.4
144
1.0
145
0.0
146
1.0
147
0.09
 71
     0
 72
     0
 73
     1
 74
     1
 75
     0
 76
     0
 77
     0
 78
     0
170
     0
171
     2
172
     0
173
     0
174
     0
175
     0
176
     0
177
     0
178
     0
  0
ENDTAB
  0
ENDSEC
  0
SECTION
  2
BLOCKS
  0
BLOCK
  8
0
  2
$MODEL_SPACE
 70
     0
 10
0.0
 20
0.0
 30
0.0
  3
$MODEL_SPACE
  1

  0
ENDBLK
  5
21
  8
0
  0
BLOCK
 67
     1
  8
0
  2
$PAPER_SPACE
 70
     0
 10
0.0
 20
0.0
 30
0.0
  3
$PAPER_SPACE
  1

  0
ENDBLK
  5
1D
 67
     1
  8
0
  0
ENDSEC
  0
SECTION
  2
ENTITIES
  0
POLYLINE
  5
6B
  8
0
 66
     1
 10
0.0
 20
0.0
 30
0.0
 70
     1
  0
VERTEX
  5
A6
  8
0
 10
87.275
 20
7.324999999999986
 30
0.0
 42
0.4142135623730951
  0
VERTEX
  5
A7
  8
0
 10
85.27500000000002
 20
5.325
 30
0.0
 42
0.4142135623730951
  0
VERTEX
  5
A8
  8
0
 10
87.275
 20
3.325000000000014
 30
0.0
 42
0.4142135623730951
  0
VERTEX
  5
A9
  8
0
 10
89.27499999999999
 20
5.325
 30
0.0
 42
0.4142135623730951
  0
SEQEND
  5
55C
  8
0
  0
POLYLINE
  5
6C
  8
0
 66
     1
 10
0.0
 20
0.0
 30
0.0
 70
     1
  0
VERTEX
  5
AA
  8
0
 10
0.275
 20
0.325
 30
0.0
  0
VERTEX
  5
AB
  8
0
 10
92.275
 20
0.325
 30
0.0
  0
VERTEX
  5
AC
  8
0
 10
92.275
 20
25.525
 30
0.0
  0
VERTEX
  5
AD
  8
0
 10
80.275
 20
25.525
 30
0.0
  0
VERTEX
  5
AE
  8
0
 10
80.275
 20
24.525
 30
0.0
  0
VERTEX
  5
AF
  8
0
 10
72.275
 20
24.525
 30
0.0
  0
VERTEX
  5
B0
  8
0
 10
72.275
 20
23.525
 30
0.0
  0
VERTEX
  5
B1
  8
0
 10
64.275
 20
23.525
 30
0.0
  0
VERTEX
  5
B2
  8
0
 10
64.275
 20
22.525
 30
0.0
  0
VERTEX
  5
B3
  8
0
 10
56.275
 20
22.525
 30
0.0
  0
VERTEX
  5
B4
  8
0
 10
56.275
 20
21.525
 30
0.0
  0
VERTEX
  5
B5
  8
0
 10
48.275
 20
21.525
 30
0.0
  0
VERTEX
  5
B6
  8
0
 10
48.275
 20
20.525
 30
0.0
  0
VERTEX
  5
B7
  8
0
 10
40.275
 20
20.525
 30
0.0
  0
VERTEX
  5
B8
  8
0
 10
40.275
 20
19.525
 30
0.0
  0
VERTEX
  5
B9
  8
0
 10
32.275
 20
19.525
 30
0.0
  0
VERTEX
  5
BA
  8
0
 10
32.275
 20
18.525
 30
0.0
  0
VERTEX
  5
BB
  8
0
 10
24.275
 20
18.525
 30
0.0
  0
VERTEX
  5
BC
  8
0
 10
24.275
 20
17.525
 30
0.0
  0
VERTEX
  5
BD
  8
0
 10
16.275
 20
17.525
 30
0.0
  0
VERTEX
  5
BE
  8
0
 10
16.275
 20
16.525
 30
0.0
  0
VERTEX
  5
BF
  8
0
 10
8.275
 20
16.525
 30
0.0
  0
VERTEX
  5
C0
  8
0
 10
8.275
 20
15.525
 30
0.0
  0
VERTEX
  5
C1
  8
0
 10
0.275
 20
15.525
 30
0.0
  0
SEQEND
  5
55D
  8
0
  0
POLYLINE
  5
6E
  8
SCAN
 66
     1
 10
0.0
 20
0.0
 30
0.0
 70
     1
  0
VERTEX
  5
C2
  8
SCAN
 10
5.133974359
 20
1.3737179487
 30
0.0
  0
VERTEX
  5
C3
  8
SCAN
 10
5.133974359
 20
1.9121794872
 30
0.0
  0
VERTEX
  5
C4
  8
SCAN
 10
8.275
 20
1.9121794872
 30
0.0
  0
VERTEX
  5
C5
  8
SCAN
 10
8.275
 20
2.2262820513
 30
0.0
  0
VERTEX
  5
C6
  8
SCAN
 10
4.775
 20
2.2262820513
 30
0.0
  0
VERTEX
  5
C7
  8
SCAN
 10
4.775
 20
1.5791466346
 30
0.0
  0
SEQEND
  5
55E
  8
SCAN
  0
POLYLINE
  5
6F
  8
SCAN
 66
     1
 10
0.0
 20
0.0
 30
0.0
 70
     1
  0
VERTEX
  5
C8
  8
SCAN
 10
8.275
 20
6.4442307692
 30
0.0
  0
VERTEX
  5
C9
  8
SCAN
 10
8.275
 20
6.7583333333
 30
0.0
  0
VERTEX
  5
CA
  8
SCAN
 10
7.1987780449
 20
6.7583333333
 30
0.0
  0
VERTEX
  5
CB
  8
SCAN
 10
6.8895092825
 20
6.7703852812
 30
0.0
  0
VERTEX
  5
CC
  8
SCAN
 10
6.584810128
 20
6.8228527042
 30
0.0
  0
VERTEX
  5
CD
  8
SCAN
 10
6.3083539626
 20
6.9586212468
 30
0.0
  0
VERTEX
  5
CE
  8
SCAN
 10
6.074070055
 20
7.2348633134
 30
0.0
  0
VERTEX
  5
CF
  8
SCAN
 10
5.9865384615
 20
7.5856570513
 30
0.0
  0
VERTEX
  5
D0
  8
SCAN
 10
6.068398834
 20
7.9049792769
 30
0.0
  0
VERTEX
  5
D1
  8
SCAN
 10
6.1744664313
 20
8.0331148066
 30
0.0
  0
VERTEX
  5
D2
  8
SCAN
 10
6.3149257054
 20
8.1218675956
 30
0.0
  0
VERTEX
  5
D3
  8
SCAN
 10
6.6411563987
 20
8.183832517
 30
0.0
  0
VERTEX
  5
D4
  8
SCAN
 10
6.9744190705
 20
8.1942307692
 30
0.0
  0
VERTEX
  5
D5
  8
SCAN
 10
8.275
 20
8.1942307692
 30
0.0
  0
VERTEX
  5
D6
  8
SCAN
 10
8.275
 20
8.5083333333
 30
0.0
  0
VERTEX
  5
D7
  8
SCAN
 10
7.2801081731
 20
8.5083333333
 30
0.0
  0
VERTEX
  5
D8
  8
SCAN
 10
6.9898163311
 20
8.5160838411
 30
0.0
  0
VERTEX
  5
D9
  8
SCAN
 10
6.701241878
 20
8.5477810387
 30
0.0
  0
VERTEX
  5
DA
  8
SCAN
 10
6.4253299436
 20
8.6348199796
 30
0.0
  0
VERTEX
  5
DB
  8
SCAN
 10
6.2460852324
 20
8.7578582003
 30
0.0
  0
VERTEX
  5
DC
  8
SCAN
 10
6.1068381621
 20
8.9247702174
 30
0.0
  0
VERTEX
  5
DD
  8
SCAN
 10
6.0166601804
 20
9.1225168172
 30
0.0
  0
VERTEX
  5
DE
  8
SCAN
 10
5.9865384615
 20
9.3377604167
 30
0.0
  0
VERTEX
  5
DF
  8
SCAN
 10
6.0556871677
 20
9.6402762143
 30
0.0
  0
VERTEX
  5
E0
  8
SCAN
 10
6.1475868919
 20
9.7666827018
 30
0.0
  0
VERTEX
  5
E1
  8
SCAN
 10
6.2724584606
 20
9.8603985973
 30
0.0
  0
VERTEX
  5
E2
  8
SCAN
 10
6.5752354653
 20
9.9325113461
 30
0.0
  0
VERTEX
  5
E3
  8
SCAN
 10
6.8881810897
 20
9.9442307692
 30
0.0
  0
VERTEX
  5
E4
  8
SCAN
 10
8.275
 20
9.9442307692
 30
0.0
  0
VERTEX
  5
E5
  8
SCAN
 10
8.275
 20
10.2583333333
 30
0.0
  0
VERTEX
  5
E6
  8
SCAN
 10
6.8895833333
 20
10.2583333333
 30
0.0
  0
VERTEX
  5
E7
  8
SCAN
 10
6.5724361581
 20
10.2448703919
 30
0.0
  0
VERTEX
  5
E8
  8
SCAN
 10
6.2601435889
 20
10.1898021843
 30
0.0
  0
VERTEX
  5
E9
  8
SCAN
 10
5.9781617191
 20
10.0472108101
 30
0.0
  0
VERTEX
  5
EA
  8
SCAN
 10
5.7477444503
 20
9.7563872685
 30
0.0
  0
VERTEX
  5
EB
  8
SCAN
 10
5.6724358974
 20
9.3924479167
 30
0.0
 42
0.2804124097235306
  0
VERTEX
  5
EC
  8
SCAN
 10
6.290124198716346
 20
8.454346955124265
 30
0.0
 42
0.3472409609931212
  0
VERTEX
  5
ED
  8
SCAN
 10
5.672435897483386
 20
7.640344551324055
 30
0.0
  0
VERTEX
  5
EE
  8
SCAN
 10
5.7133847716
 20
7.3369344599
 30
0.0
  0
VERTEX
  5
EF
  8
SCAN
 10
5.8021434295
 20
7.1131009615
 30
0.0
  0
VERTEX
  5
F0
  8
SCAN
 10
5.9867769604
 20
6.8973435743
 30
0.0
  0
VERTEX
  5
F1
  8
SCAN
 10
6.1618189103
 20
6.7583333333
 30
0.0
  0
VERTEX
  5
F2
  8
SCAN
 10
5.7173076923
 20
6.7583333333
 30
0.0
  0
VERTEX
  5
F3
  8
SCAN
 10
5.7173076923
 20
6.4442307692
 30
0.0
  0
SEQEND
  5
55F
  8
SCAN
  0
POLYLINE
  5
70
  8
SCAN
 66
     1
 10
0.0
 20
0.0
 30
0.0
 70
     1
  0
VERTEX
  5
F4
  8
SCAN
 10
8.275
 20
10.9762820513
 30
0.0
  0
VERTEX
  5
F5
  8
SCAN
 10
8.275
 20
11.2903846154
 30
0.0
  0
VERTEX
  5
F6
  8
SCAN
 10
7.1987780449
 20
11.2903846154
 30
0.0
  0
VERTEX
  5
F7
  8
SCAN
 10
6.8895092825
 20
11.3024365632
 30
0.0
  0
VERTEX
  5
F8
  8
SCAN
 10
6.584810128
 20
11.3549039863
 30
0.0
  0
VERTEX
  5
F9
  8
SCAN
 10
6.3083539626
 20
11.4906725289
 30
0.0
  0
VERTEX
  5
FA
  8
SCAN
 10
6.074070055
 20
11.7669145955
 30
0.0
  0
VERTEX
  5
FB
  8
SCAN
 10
5.9865384615
 20
12.1177083333
 30
0.0
  0
VERTEX
  5
FC
  8
SCAN
 10
6.068398834
 20
12.437030559
 30
0.0
  0
VERTEX
  5
FD
  8
SCAN
 10
6.1744664313
 20
12.5651660886
 30
0.0
  0
VERTEX
  5
FE
  8
SCAN
 10
6.3149257054
 20
12.6539188777
 30
0.0
  0
VERTEX
  5
FF
  8
SCAN
 10
6.6411563987
 20
12.715883799
 30
0.0
  0
VERTEX
  5
100
  8
SCAN
 10
6.9744190705
 20
12.7262820513
 30
0.0
  0
VERTEX
  5
101
  8
SCAN
 10
8.275
 20
12.7262820513
 30
0.0
  0
VERTEX
  5
102
  8
SCAN
 10
8.275
 20
13.0403846154
 30
0.0
  0
VERTEX
  5
103
  8
SCAN
 10
7.2801081731
 20
13.0403846154
 30
0.0
  0
VERTEX
  5
104
  8
SCAN
 10
6.9898163311
 20
13.0481351232
 30
0.0
  0
VERTEX
  5
105
  8
SCAN
 10
6.701241878
 20
13.0798323207
 30
0.0
  0
VERTEX
  5
106
  8
SCAN
 10
6.4253299436
 20
13.1668712617
 30
0.0
  0
VERTEX
  5
107
  8
SCAN
 10
6.2460852324
 20
13.2899094823
 30
0.0
  0
VERTEX
  5
108
  8
SCAN
 10
6.1068381621
 20
13.4568214994
 30
0.0
  0
VERTEX
  5
109
  8
SCAN
 10
6.0166601804
 20
13.6545680992
 30
0.0
  0
VERTEX
  5
10A
  8
SCAN
 10
5.9865384615
 20
13.8698116987
 30
0.0
  0
VERTEX
  5
10B
  8
SCAN
 10
6.0556871677
 20
14.1723274963
 30
0.0
  0
VERTEX
  5
10C
  8
SCAN
 10
6.1475868919
 20
14.2987339839
 30
0.0
  0
VERTEX
  5
10D
  8
SCAN
 10
6.2724584606
 20
14.3924498794
 30
0.0
  0
VERTEX
  5
10E
  8
SCAN
 10
6.5752354653
 20
14.4645626282
 30
0.0
  0
VERTEX
  5
10F
  8
SCAN
 10
6.8881810897
 20
14.4762820513
 30
0.0
  0
VERTEX
  5
110
  8
SCAN
 10
8.275
 20
14.4762820513
 30
0.0
  0
VERTEX
  5
111
  8
SCAN
 10
8.275
 20
14.7903846154
 30
0.0
  0
VERTEX
  5
112
  8
SCAN
 10
6.8895833333
 20
14.7903846154
 30
0.0
  0
VERTEX
  5
113
  8
SCAN
 10
6.5724361581
 20
14.7769216739
 30
0.0
  0
VERTEX
  5
114
  8
SCAN
 10
6.2601435889
 20
14.7218534664
 30
0.0
  0
VERTEX
  5
115
  8
SCAN
 10
5.9781617191
 20
14.5792620922
 30
0.0
  0
VERTEX
  5
116
  8
SCAN
 10
5.7477444503
 20
14.2884385506
 30
0.0
  0
VERTEX
  5
117
  8
SCAN
 10
5.6724358974
 20
13.9244991987
 30
0.0
 42
0.2804124097235305
  0
VERTEX
  5
118
  8
SCAN
 10
6.290124198716302
 20
12.98639823722417
 30
0.0
 42
0.3472409609931213
  0
VERTEX
  5
119
  8
SCAN
 10
5.67243589748334
 20
12.17239583332405
 30
0.0
  0
VERTEX
  5
11A
  8
SCAN
 10
5.7133847716
 20
11.868985742
 30
0.0
  0
VERTEX
  5
11B
  8
SCAN
 10
5.8021434295
 20
11.6451522436
 30
0.0
  0
VERTEX
  5
11C
  8
SCAN
 10
5.9867769604
 20
11.4293948563
 30
0.0
  0
VERTEX
  5
11D
  8
SCAN
 10
6.1618189103
 20
11.2903846154
 30
0.0
  0
VERTEX
  5
11E
  8
SCAN
 10
5.7173076923
 20
11.2903846154
 30
0.0
  0
VERTEX
  5
11F
  8
SCAN
 10
5.7173076923
 20
10.9762820513
 30
0.0
  0
SEQEND
  5
560
  8
SCAN
  0
POLYLINE
  5
71
  8
SCAN
 66
     1
 10
0.0
 20
0.0
 30
0.0
 70
     1
  0
VERTEX
  5
120
  8
SCAN
 10
13.133974359
 20
1.8737179487
 30
0.0
  0
VERTEX
  5
121
  8
SCAN
 10
13.133974359
 20
2.4121794872
 30
0.0
  0
VERTEX
  5
122
  8
SCAN
 10
16.275
 20
2.4121794872
 30
0.0
  0
VERTEX
  5
123
  8
SCAN
 10
16.275
 20
2.7262820513
 30
0.0
  0
VERTEX
  5
124
  8
SCAN
 10
12.775
 20
2.7262820513
 30
0.0
  0
VERTEX
  5
125
  8
SCAN
 10
12.775
 20
2.0791466346
 30
0.0
  0
SEQEND
  5
561
  8
SCAN
  0
POLYLINE
  5
72
  8
SCAN
 66
     1
 10
0.0
 20
0.0
 30
0.0
 70
     1
  0
VERTEX
  5
126
  8
SCAN
 10
14.282411859
 20
4.5982772436
 30
0.0
  0
VERTEX
  5
127
  8
SCAN
 10
14.8246600297
 20
4.3021635406
 30
0.0
  0
VERTEX
  5
128
  8
SCAN
 10
15.2990384615
 20
4.2070512821
 30
0.0
 42
0.4211343206013586
  0
VERTEX
  5
129
  8
SCAN
 10
16.364743589737
 20
5.267147435861729
 30
0.0
 42
0.4250617599620524
  0
VERTEX
  5
12A
  8
SCAN
 10
15.29272836540479
 20
6.360897435877099
 30
0.0
 42
0.4228317160484396
  0
VERTEX
  5
12B
  8
SCAN
 10
14.25576923077617
 20
5.322536057676542
 30
0.0
  0
VERTEX
  5
12C
  8
SCAN
 10
14.2668103582
 20
5.1188314189
 30
0.0
  0
VERTEX
  5
12D
  8
SCAN
 10
14.2894230769
 20
4.9600560897
 30
0.0
  0
VERTEX
  5
12E
  8
SCAN
 10
12.8752604167
 20
5.8848357372
 30
0.0
  0
VERTEX
  5
12F
  8
SCAN
 10
12.6852564103
 20
5.6429487179
 30
0.0
  0
SEQEND
  5
562
  8
SCAN
  0
POLYLINE
  5
73
  8
SCAN
 66
     1
 10
0.0
 20
0.0
 30
0.0
 70
     1
  0
VERTEX
  5
130
  8
SCAN
 10
16.275
 20
6.9442307692
 30
0.0
  0
VERTEX
  5
131
  8
SCAN
 10
16.275
 20
7.2583333333
 30
0.0
  0
VERTEX
  5
132
  8
SCAN
 10
15.1987780449
 20
7.2583333333
 30
0.0
  0
VERTEX
  5
133
  8
SCAN
 10
14.8895092825
 20
7.2703852812
 30
0.0
  0
VERTEX
  5
134
  8
SCAN
 10
14.584810128
 20
7.3228527042
 30
0.0
  0
VERTEX
  5
135
  8
SCAN
 10
14.3083539626
 20
7.4586212468
 30
0.0
  0
VERTEX
  5
136
  8
SCAN
 10
14.074070055
 20
7.7348633134
 30
0.0
  0
VERTEX
  5
137
  8
SCAN
 10
13.9865384615
 20
8.0856570513
 30
0.0
  0
VERTEX
  5
138
  8
SCAN
 10
14.068398834
 20
8.4049792769
 30
0.0
  0
VERTEX
  5
139
  8
SCAN
 10
14.1744664313
 20
8.5331148066
 30
0.0
  0
VERTEX
  5
13A
  8
SCAN
 10
14.3149257054
 20
8.6218675956
 30
0.0
  0
VERTEX
  5
13B
  8
SCAN
 10
14.6411563987
 20
8.683832517
 30
0.0
  0
VERTEX
  5
13C
  8
SCAN
 10
14.9744190705
 20
8.6942307692
 30
0.0
  0
VERTEX
  5
13D
  8
SCAN
 10
16.275
 20
8.6942307692
 30
0.0
  0
VERTEX
  5
13E
  8
SCAN
 10
16.275
 20
9.0083333333
 30
0.0
  0
VERTEX
  5
13F
  8
SCAN
 10
15.2801081731
 20
9.0083333333
 30
0.0
  0
VERTEX
  5
140
  8
SCAN
 10
14.9898163311
 20
9.0160838411
 30
0.0
  0
VERTEX
  5
141
  8
SCAN
 10
14.701241878
 20
9.0477810387
 30
0.0
  0
VERTEX
  5
142
  8
SCAN
 10
14.4253299436
 20
9.1348199796
 30
0.0
  0
VERTEX
  5
143
  8
SCAN
 10
14.2460852324
 20
9.2578582003
 30
0.0
  0
VERTEX
  5
144
  8
SCAN
 10
14.1068381621
 20
9.4247702174
 30
0.0
  0
VERTEX
  5
145
  8
SCAN
 10
14.0166601804
 20
9.6225168172
 30
0.0
  0
VERTEX
  5
146
  8
SCAN
 10
13.9865384615
 20
9.8377604167
 30
0.0
  0
VERTEX
  5
147
  8
SCAN
 10
14.0556871677
 20
10.1402762143
 30
0.0
  0
VERTEX
  5
148
  8
SCAN
 10
14.1475868919
 20
10.2666827018
 30
0.0
  0
VERTEX
  5
149
  8
SCAN
 10
14.2724584606
 20
10.3603985973
 30
0.0
  0
VERTEX
  5
14A
  8
SCAN
 10
14.5752354653
 20
10.4325113461
 30
0.0
  0
VERTEX
  5
14B
  8
SCAN
 10
14.8881810897
 20
10.4442307692
 30
0.0
  0
VERTEX
  5
14C
  8
SCAN
 10
16.275
 20
10.4442307692
 30
0.0
  0
VERTEX
  5
14D
  8
SCAN
 10
16.275
 20
10.7583333333
 30
0.0
  0
VERTEX
  5
14E
  8
SCAN
 10
14.8895833333
 20
10.7583333333
 30
0.0
  0
VERTEX
  5
14F
  8
SCAN
 10
14.5724361581
 20
10.7448703919
 30
0.0
  0
VERTEX
  5
150
  8
SCAN
 10
14.2601435889
 20
10.6898021843
 30
0.0
  0
VERTEX
  5
151
  8
SCAN
 10
13.9781617191
 20
10.5472108101
 30
0.0
  0
VERTEX
  5
152
  8
SCAN
 10
13.7477444503
 20
10.2563872685
 30
0.0
  0
VERTEX
  5
153
  8
SCAN
 10
13.6724358974
 20
9.8924479167
 30
0.0
 42
0.2804124097235293
  0
VERTEX
  5
154
  8
SCAN
 10
14.29012419871632
 20
8.954346955124201
 30
0.0
 42
0.3472409609931195
  0
VERTEX
  5
155
  8
SCAN
 10
13.67243589748333
 20
8.140344551324054
 30
0.0
  0
VERTEX
  5
156
  8
SCAN
 10
13.7133847716
 20
7.8369344599
 30
0.0
  0
VERTEX
  5
157
  8
SCAN
 10
13.8021434295
 20
7.6131009615
 30
0.0
  0
VERTEX
  5
158
  8
SCAN
 10
13.9867769604
 20
7.3973435743
 30
0.0
  0
VERTEX
  5
159
  8
SCAN
 10
14.1618189103
 20
7.2583333333
 30
0.0
  0
VERTEX
  5
15A
  8
SCAN
 10
13.7173076923
 20
7.2583333333
 30
0.0
  0
VERTEX
  5
15B
  8
SCAN
 10
13.7173076923
 20
6.9442307692
 30
0.0
  0
SEQEND
  5
563
  8
SCAN
  0
POLYLINE
  5
74
  8
SCAN
 66
     1
 10
0.0
 20
0.0
 30
0.0
 70
     1
  0
VERTEX
  5
15C
  8
SCAN
 10
16.275
 20
11.4762820513
 30
0.0
  0
VERTEX
  5
15D
  8
SCAN
 10
16.275
 20
11.7903846154
 30
0.0
  0
VERTEX
  5
15E
  8
SCAN
 10
15.1987780449
 20
11.7903846154
 30
0.0
  0
VERTEX
  5
15F
  8
SCAN
 10
14.8895092825
 20
11.8024365632
 30
0.0
  0
VERTEX
  5
160
  8
SCAN
 10
14.584810128
 20
11.8549039863
 30
0.0
  0
VERTEX
  5
161
  8
SCAN
 10
14.3083539626
 20
11.9906725289
 30
0.0
  0
VERTEX
  5
162
  8
SCAN
 10
14.074070055
 20
12.2669145955
 30
0.0
  0
VERTEX
  5
163
  8
SCAN
 10
13.9865384615
 20
12.6177083333
 30
0.0
  0
VERTEX
  5
164
  8
SCAN
 10
14.068398834
 20
12.937030559
 30
0.0
  0
VERTEX
  5
165
  8
SCAN
 10
14.1744664313
 20
13.0651660886
 30
0.0
  0
VERTEX
  5
166
  8
SCAN
 10
14.3149257054
 20
13.1539188777
 30
0.0
  0
VERTEX
  5
167
  8
SCAN
 10
14.6411563987
 20
13.215883799
 30
0.0
  0
VERTEX
  5
168
  8
SCAN
 10
14.9744190705
 20
13.2262820513
 30
0.0
  0
VERTEX
  5
169
  8
SCAN
 10
16.275
 20
13.2262820513
 30
0.0
  0
VERTEX
  5
16A
  8
SCAN
 10
16.275
 20
13.5403846154
 30
0.0
  0
VERTEX
  5
16B
  8
SCAN
 10
15.2801081731
 20
13.5403846154
 30
0.0
  0
VERTEX
  5
16C
  8
SCAN
 10
14.9898163311
 20
13.5481351232
 30
0.0
  0
VERTEX
  5
16D
  8
SCAN
 10
14.701241878
 20
13.5798323207
 30
0.0
  0
VERTEX
  5
16E
  8
SCAN
 10
14.4253299436
 20
13.6668712617
 30
0.0
  0
VERTEX
  5
16F
  8
SCAN
 10
14.2460852324
 20
13.7899094823
 30
0.0
  0
VERTEX
  5
170
  8
SCAN
 10
14.1068381621
 20
13.9568214994
 30
0.0
  0
VERTEX
  5
171
  8
SCAN
 10
14.0166601804
 20
14.1545680992
 30
0.0
  0
VERTEX
  5
172
  8
SCAN
 10
13.9865384615
 20
14.3698116987
 30
0.0
  0
VERTEX
  5
173
  8
SCAN
 10
14.0556871677
 20
14.6723274963
 30
0.0
  0
VERTEX
  5
174
  8
SCAN
 10
14.1475868919
 20
14.7987339839
 30
0.0
  0
VERTEX
  5
175
  8
SCAN
 10
14.2724584606
 20
14.8924498794
 30
0.0
  0
VERTEX
  5
176
  8
SCAN
 10
14.5752354653
 20
14.9645626282
 30
0.0
  0
VERTEX
  5
177
  8
SCAN
 10
14.8881810897
 20
14.9762820513
 30
0.0
  0
VERTEX
  5
178
  8
SCAN
 10
16.275
 20
14.9762820513
 30
0.0
  0
VERTEX
  5
179
  8
SCAN
 10
16.275
 20
15.2903846154
 30
0.0
  0
VERTEX
  5
17A
  8
SCAN
 10
14.8895833333
 20
15.2903846154
 30
0.0
  0
VERTEX
  5
17B
  8
SCAN
 10
14.5724361581
 20
15.2769216739
 30
0.0
  0
VERTEX
  5
17C
  8
SCAN
 10
14.2601435889
 20
15.2218534664
 30
0.0
  0
VERTEX
  5
17D
  8
SCAN
 10
13.9781617191
 20
15.0792620922
 30
0.0
  0
VERTEX
  5
17E
  8
SCAN
 10
13.7477444503
 20
14.7884385506
 30
0.0
  0
VERTEX
  5
17F
  8
SCAN
 10
13.6724358974
 20
14.4244991987
 30
0.0
 42
0.2804124097235307
  0
VERTEX
  5
180
  8
SCAN
 10
14.29012419871635
 20
13.48639823722427
 30
0.0
 42
0.3472409609931204
  0
VERTEX
  5
181
  8
SCAN
 10
13.6724358974834
 20
12.67239583332405
 30
0.0
  0
VERTEX
  5
182
  8
SCAN
 10
13.7133847716
 20
12.368985742
 30
0.0
  0
VERTEX
  5
183
  8
SCAN
 10
13.8021434295
 20
12.1451522436
 30
0.0
  0
VERTEX
  5
184
  8
SCAN
 10
13.9867769604
 20
11.9293948563
 30
0.0
  0
VERTEX
  5
185
  8
SCAN
 10
14.1618189103
 20
11.7903846154
 30
0.0
  0
VERTEX
  5
186
  8
SCAN
 10
13.7173076923
 20
11.7903846154
 30
0.0
  0
VERTEX
  5
187
  8
SCAN
 10
13.7173076923
 20
11.4762820513
 30
0.0
  0
SEQEND
  5
564
  8
SCAN
  0
POLYLINE
  5
75
  8
SCAN
 66
     1
 10
0.0
 20
0.0
 30
0.0
 70
     1
  0
VERTEX
  5
188
  8
SCAN
 10
21.133974359
 20
2.3737179487
 30
0.0
  0
VERTEX
  5
189
  8
SCAN
 10
21.133974359
 20
2.9121794872
 30
0.0
  0
VERTEX
  5
18A
  8
SCAN
 10
24.275
 20
2.9121794872
 30
0.0
  0
VERTEX
  5
18B
  8
SCAN
 10
24.275
 20
3.2262820513
 30
0.0
  0
VERTEX
  5
18C
  8
SCAN
 10
20.775
 20
3.2262820513
 30
0.0
  0
VERTEX
  5
18D
  8
SCAN
 10
20.775
 20
2.5791466346
 30
0.0
  0
SEQEND
  5
565
  8
SCAN
  0
POLYLINE
  5
76
  8
SCAN
 66
     1
 10
0.0
 20
0.0
 30
0.0
 70
     1
  0
VERTEX
  5
18E
  8
SCAN
 10
21.133974359
 20
4.7519230769
 30
0.0
  0
VERTEX
  5
18F
  8
SCAN
 10
21.133974359
 20
6.3743189103
 30
0.0
  0
VERTEX
  5
190
  8
SCAN
 10
24.2154046474
 20
4.7946915064
 30
0.0
  0
VERTEX
  5
191
  8
SCAN
 10
24.3647435897
 20
5.066025641
 30
0.0
  0
VERTEX
  5
192
  8
SCAN
 10
20.775
 20
6.9057692308
 30
0.0
  0
VERTEX
  5
193
  8
SCAN
 10
20.775
 20
4.7519230769
 30
0.0
  0
SEQEND
  5
566
  8
SCAN
  0
POLYLINE
  5
77
  8
SCAN
 66
     1
 10
0.0
 20
0.0
 30
0.0
 70
     1
  0
VERTEX
  5
194
  8
SCAN
 10
24.275
 20
7.4442307692
 30
0.0
  0
VERTEX
  5
195
  8
SCAN
 10
24.275
 20
7.7583333333
 30
0.0
  0
VERTEX
  5
196
  8
SCAN
 10
23.1987780449
 20
7.7583333333
 30
0.0
  0
VERTEX
  5
197
  8
SCAN
 10
22.8895092825
 20
7.7703852812
 30
0.0
  0
VERTEX
  5
198
  8
SCAN
 10
22.584810128
 20
7.8228527042
 30
0.0
  0
VERTEX
  5
199
  8
SCAN
 10
22.3083539626
 20
7.9586212468
 30
0.0
  0
VERTEX
  5
19A
  8
SCAN
 10
22.074070055
 20
8.2348633134
 30
0.0
  0
VERTEX
  5
19B
  8
SCAN
 10
21.9865384615
 20
8.5856570513
 30
0.0
  0
VERTEX
  5
19C
  8
SCAN
 10
22.068398834
 20
8.9049792769
 30
0.0
  0
VERTEX
  5
19D
  8
SCAN
 10
22.1744664313
 20
9.0331148066
 30
0.0
  0
VERTEX
  5
19E
  8
SCAN
 10
22.3149257054
 20
9.1218675956
 30
0.0
  0
VERTEX
  5
19F
  8
SCAN
 10
22.6411563987
 20
9.183832517
 30
0.0
  0
VERTEX
  5
1A0
  8
SCAN
 10
22.9744190705
 20
9.1942307692
 30
0.0
  0
VERTEX
  5
1A1
  8
SCAN
 10
24.275
 20
9.1942307692
 30
0.0
  0
VERTEX
  5
1A2
  8
SCAN
 10
24.275
 20
9.5083333333
 30
0.0
  0
VERTEX
  5
1A3
  8
SCAN
 10
23.2801081731
 20
9.5083333333
 30
0.0
  0
VERTEX
  5
1A4
  8
SCAN
 10
22.9898163311
 20
9.5160838411
 30
0.0
  0
VERTEX
  5
1A5
  8
SCAN
 10
22.701241878
 20
9.5477810387
 30
0.0
  0
VERTEX
  5
1A6
  8
SCAN
 10
22.4253299436
 20
9.6348199796
 30
0.0
  0
VERTEX
  5
1A7
  8
SCAN
 10
22.2460852324
 20
9.7578582003
 30
0.0
  0
VERTEX
  5
1A8
  8
SCAN
 10
22.1068381621
 20
9.9247702174
 30
0.0
  0
VERTEX
  5
1A9
  8
SCAN
 10
22.0166601804
 20
10.1225168172
 30
0.0
  0
VERTEX
  5
1AA
  8
SCAN
 10
21.9865384615
 20
10.3377604167
 30
0.0
  0
VERTEX
  5
1AB
  8
SCAN
 10
22.0556871677
 20
10.6402762143
 30
0.0
  0
VERTEX
  5
1AC
  8
SCAN
 10
22.1475868919
 20
10.7666827018
 30
0.0
  0
VERTEX
  5
1AD
  8
SCAN
 10
22.2724584606
 20
10.8603985973
 30
0.0
  0
VERTEX
  5
1AE
  8
SCAN
 10
22.5752354653
 20
10.9325113461
 30
0.0
  0
VERTEX
  5
1AF
  8
SCAN
 10
22.8881810897
 20
10.9442307692
 30
0.0
  0
VERTEX
  5
1B0
  8
SCAN
 10
24.275
 20
10.9442307692
 30
0.0
  0
VERTEX
  5
1B1
  8
SCAN
 10
24.275
 20
11.2583333333
 30
0.0
  0
VERTEX
  5
1B2
  8
SCAN
 10
22.8895833333
 20
11.2583333333
 30
0.0
  0
VERTEX
  5
1B3
  8
SCAN
 10
22.5724361581
 20
11.2448703919
 30
0.0
  0
VERTEX
  5
1B4
  8
SCAN
 10
22.2601435889
 20
11.1898021843
 30
0.0
  0
VERTEX
  5
1B5
  8
SCAN
 10
21.9781617191
 20
11.0472108101
 30
0.0
  0
VERTEX
  5
1B6
  8
SCAN
 10
21.7477444503
 20
10.7563872685
 30
0.0
  0
VERTEX
  5
1B7
  8
SCAN
 10
21.6724358974
 20
10.3924479167
 30
0.0
 42
0.2804124097235312
  0
VERTEX
  5
1B8
  8
SCAN
 10
22.29012419871635
 20
9.454346955124281
 30
0.0
 42
0.3472409609931211
  0
VERTEX
  5
1B9
  8
SCAN
 10
21.67243589748337
 20
8.640344551324056
 30
0.0
  0
VERTEX
  5
1BA
  8
SCAN
 10
21.7133847716
 20
8.3369344599
 30
0.0
  0
VERTEX
  5
1BB
  8
SCAN
 10
21.8021434295
 20
8.1131009615
 30
0.0
  0
VERTEX
  5
1BC
  8
SCAN
 10
21.9867769604
 20
7.8973435743
 30
0.0
  0
VERTEX
  5
1BD
  8
SCAN
 10
22.1618189103
 20
7.7583333333
 30
0.0
  0
VERTEX
  5
1BE
  8
SCAN
 10
21.7173076923
 20
7.7583333333
 30
0.0
  0
VERTEX
  5
1BF
  8
SCAN
 10
21.7173076923
 20
7.4442307692
 30
0.0
  0
SEQEND
  5
567
  8
SCAN
  0
POLYLINE
  5
78
  8
SCAN
 66
     1
 10
0.0
 20
0.0
 30
0.0
 70
     1
  0
VERTEX
  5
1C0
  8
SCAN
 10
24.275
 20
11.9762820513
 30
0.0
  0
VERTEX
  5
1C1
  8
SCAN
 10
24.275
 20
12.2903846154
 30
0.0
  0
VERTEX
  5
1C2
  8
SCAN
 10
23.1987780449
 20
12.2903846154
 30
0.0
  0
VERTEX
  5
1C3
  8
SCAN
 10
22.8895092825
 20
12.3024365632
 30
0.0
  0
VERTEX
  5
1C4
  8
SCAN
 10
22.584810128
 20
12.3549039863
 30
0.0
  0
VERTEX
  5
1C5
  8
SCAN
 10
22.3083539626
 20
12.4906725289
 30
0.0
  0
VERTEX
  5
1C6
  8
SCAN
 10
22.074070055
 20
12.7669145955
 30
0.0
  0
VERTEX
  5
1C7
  8
SCAN
 10
21.9865384615
 20
13.1177083333
 30
0.0
  0
VERTEX
  5
1C8
  8
SCAN
 10
22.068398834
 20
13.437030559
 30
0.0
  0
VERTEX
  5
1C9
  8
SCAN
 10
22.1744664313
 20
13.5651660886
 30
0.0
  0
VERTEX
  5
1CA
  8
SCAN
 10
22.3149257054
 20
13.6539188777
 30
0.0
  0
VERTEX
  5
1CB
  8
SCAN
 10
22.6411563987
 20
13.715883799
 30
0.0
  0
VERTEX
  5
1CC
  8
SCAN
 10
22.9744190705
 20
13.7262820513
 30
0.0
  0
VERTEX
  5
1CD
  8
SCAN
 10
24.275
 20
13.7262820513
 30
0.0
  0
VERTEX
  5
1CE
  8
SCAN
 10
24.275
 20
14.0403846154
 30
0.0
  0
VERTEX
  5
1CF
  8
SCAN
 10
23.2801081731
 20
14.0403846154
 30
0.0
  0
VERTEX
  5
1D0
  8
SCAN
 10
22.9898163311
 20
14.0481351232
 30
0.0
  0
VERTEX
  5
1D1
  8
SCAN
 10
22.701241878
 20
14.0798323207
 30
0.0
  0
VERTEX
  5
1D2
  8
SCAN
 10
22.4253299436
 20
14.1668712617
 30
0.0
  0
VERTEX
  5
1D3
  8
SCAN
 10
22.2460852324
 20
14.2899094823
 30
0.0
  0
VERTEX
  5
1D4
  8
SCAN
 10
22.1068381621
 20
14.4568214994
 30
0.0
  0
VERTEX
  5
1D5
  8
SCAN
 10
22.0166601804
 20
14.6545680992
 30
0.0
  0
VERTEX
  5
1D6
  8
SCAN
 10
21.9865384615
 20
14.8698116987
 30
0.0
  0
VERTEX
  5
1D7
  8
SCAN
 10
22.0556871677
 20
15.1723274963
 30
0.0
  0
VERTEX
  5
1D8
  8
SCAN
 10
22.1475868919
 20
15.2987339839
 30
0.0
  0
VERTEX
  5
1D9
  8
SCAN
 10
22.2724584606
 20
15.3924498794
 30
0.0
  0
VERTEX
  5
1DA
  8
SCAN
 10
22.5752354653
 20
15.4645626282
 30
0.0
  0
VERTEX
  5
1DB
  8
SCAN
 10
22.8881810897
 20
15.4762820513
 30
0.0
  0
VERTEX
  5
1DC
  8
SCAN
 10
24.275
 20
15.4762820513
 30
0.0
  0
VERTEX
  5
1DD
  8
SCAN
 10
24.275
 20
15.7903846154
 30
0.0
  0
VERTEX
  5
1DE
  8
SCAN
 10
22.8895833333
 20
15.7903846154
 30
0.0
  0
VERTEX
  5
1DF
  8
SCAN
 10
22.5724361581
 20
15.7769216739
 30
0.0
  0
VERTEX
  5
1E0
  8
SCAN
 10
22.2601435889
 20
15.7218534664
 30
0.0
  0
VERTEX
  5
1E1
  8
SCAN
 10
21.9781617191
 20
15.5792620922
 30
0.0
  0
VERTEX
  5
1E2
  8
SCAN
 10
21.7477444503
 20
15.2884385506
 30
0.0
  0
VERTEX
  5
1E3
  8
SCAN
 10
21.6724358974
 20
14.9244991987
 30
0.0
 42
0.2804124097235293
  0
VERTEX
  5
1E4
  8
SCAN
 10
22.29012419871635
 20
13.98639823722427
 30
0.0
 42
0.3472409609931211
  0
VERTEX
  5
1E5
  8
SCAN
 10
21.67243589748337
 20
13.17239583332405
 30
0.0
  0
VERTEX
  5
1E6
  8
SCAN
 10
21.7133847716
 20
12.868985742
 30
0.0
  0
VERTEX
  5
1E7
  8
SCAN
 10
21.8021434295
 20
12.6451522436
 30
0.0
  0
VERTEX
  5
1E8
  8
SCAN
 10
21.9867769604
 20
12.4293948563
 30
0.0
  0
VERTEX
  5
1E9
  8
SCAN
 10
22.1618189103
 20
12.2903846154
 30
0.0
  0
VERTEX
  5
1EA
  8
SCAN
 10
21.7173076923
 20
12.2903846154
 30
0.0
  0
VERTEX
  5
1EB
  8
SCAN
 10
21.7173076923
 20
11.9762820513
 30
0.0
  0
SEQEND
  5
568
  8
SCAN
  0
POLYLINE
  5
79
  8
SCAN
 66
     1
 10
0.0
 20
0.0
 30
0.0
 70
     1
  0
VERTEX
  5
1EC
  8
SCAN
 10
29.133974359
 20
2.8737179487
 30
0.0
  0
VERTEX
  5
1ED
  8
SCAN
 10
29.133974359
 20
3.4121794872
 30
0.0
  0
VERTEX
  5
1EE
  8
SCAN
 10
32.275
 20
3.4121794872
 30
0.0
  0
VERTEX
  5
1EF
  8
SCAN
 10
32.275
 20
3.7262820513
 30
0.0
  0
VERTEX
  5
1F0
  8
SCAN
 10
28.775
 20
3.7262820513
 30
0.0
  0
VERTEX
  5
1F1
  8
SCAN
 10
28.775
 20
3.0791466346
 30
0.0
  0
SEQEND
  5
569
  8
SCAN
  0
POLYLINE
  5
7A
  8
SCAN
 66
     1
 10
0.0
 20
0.0
 30
0.0
 70
     1
  0
VERTEX
  5
1F2
  8
SCAN
 10
29.59320913461059
 20
7.226282051321262
 30
0.0
 42
0.4097066739205724
  0
VERTEX
  5
1F3
  8
SCAN
 10
28.6852564102341
 20
6.232792467992248
 30
0.0
 42
0.4102029941734072
  0
VERTEX
  5
1F4
  8
SCAN
 10
29.58339342947555
 20
5.207051282010933
 30
0.0
 42
0.2943345846163998
  0
VERTEX
  5
1F5
  8
SCAN
 10
30.32518028850892
 20
5.718169070514343
 30
0.0
 42
0.3022337674759912
  0
VERTEX
  5
1F6
  8
SCAN
 10
31.28431490381337
 20
5.027564102540661
 30
0.0
 42
0.4329422975499672
  0
VERTEX
  5
1F7
  8
SCAN
 10
32.36474358978209
 20
6.211758814141341
 30
0.0
 42
0.2296309295293531
  0
VERTEX
  5
1F8
  8
SCAN
 10
31.98052884612626
 20
7.140745192266674
 30
0.0
  0
VERTEX
  5
1F9
  8
SCAN
 10
31.5975991995
 20
7.3550933241
 30
0.0
  0
VERTEX
  5
1FA
  8
SCAN
 10
31.2555689103
 20
7.4057692308
 30
0.0
 42
0.295111310308695
  0
VERTEX
  5
1FB
  8
SCAN
 10
30.32518028846093
 20
6.729186698676756
 30
0.0
 42
0.294183204429801
  0
SEQEND
  5
56A
  8
SCAN
  0
POLYLINE
  5
7B
  8
SCAN
 66
     1
 10
0.0
 20
0.0
 30
0.0
 70
     1
  0
VERTEX
  5
1FC
  8
SCAN
 10
32.275
 20
7.9442307692
 30
0.0
  0
VERTEX
  5
1FD
  8
SCAN
 10
32.275
 20
8.2583333333
 30
0.0
  0
VERTEX
  5
1FE
  8
SCAN
 10
31.1987780449
 20
8.2583333333
 30
0.0
  0
VERTEX
  5
1FF
  8
SCAN
 10
30.8895092825
 20
8.2703852812
 30
0.0
  0
VERTEX
  5
200
  8
SCAN
 10
30.584810128
 20
8.3228527042
 30
0.0
  0
VERTEX
  5
201
  8
SCAN
 10
30.3083539626
 20
8.4586212468
 30
0.0
  0
VERTEX
  5
202
  8
SCAN
 10
30.074070055
 20
8.7348633134
 30
0.0
  0
VERTEX
  5
203
  8
SCAN
 10
29.9865384615
 20
9.0856570513
 30
0.0
  0
VERTEX
  5
204
  8
SCAN
 10
30.068398834
 20
9.4049792769
 30
0.0
  0
VERTEX
  5
205
  8
SCAN
 10
30.1744664313
 20
9.5331148066
 30
0.0
  0
VERTEX
  5
206
  8
SCAN
 10
30.3149257054
 20
9.6218675956
 30
0.0
  0
VERTEX
  5
207
  8
SCAN
 10
30.6411563987
 20
9.683832517
 30
0.0
  0
VERTEX
  5
208
  8
SCAN
 10
30.9744190705
 20
9.6942307692
 30
0.0
  0
VERTEX
  5
209
  8
SCAN
 10
32.275
 20
9.6942307692
 30
0.0
  0
VERTEX
  5
20A
  8
SCAN
 10
32.275
 20
10.0083333333
 30
0.0
  0
VERTEX
  5
20B
  8
SCAN
 10
31.2801081731
 20
10.0083333333
 30
0.0
  0
VERTEX
  5
20C
  8
SCAN
 10
30.9898163311
 20
10.0160838411
 30
0.0
  0
VERTEX
  5
20D
  8
SCAN
 10
30.701241878
 20
10.0477810387
 30
0.0
  0
VERTEX
  5
20E
  8
SCAN
 10
30.4253299436
 20
10.1348199796
 30
0.0
  0
VERTEX
  5
20F
  8
SCAN
 10
30.2460852324
 20
10.2578582003
 30
0.0
  0
VERTEX
  5
210
  8
SCAN
 10
30.1068381621
 20
10.4247702174
 30
0.0
  0
VERTEX
  5
211
  8
SCAN
 10
30.0166601804
 20
10.6225168172
 30
0.0
  0
VERTEX
  5
212
  8
SCAN
 10
29.9865384615
 20
10.8377604167
 30
0.0
  0
VERTEX
  5
213
  8
SCAN
 10
30.0556871677
 20
11.1402762143
 30
0.0
  0
VERTEX
  5
214
  8
SCAN
 10
30.1475868919
 20
11.2666827018
 30
0.0
  0
VERTEX
  5
215
  8
SCAN
 10
30.2724584606
 20
11.3603985973
 30
0.0
  0
VERTEX
  5
216
  8
SCAN
 10
30.5752354653
 20
11.4325113461
 30
0.0
  0
VERTEX
  5
217
  8
SCAN
 10
30.8881810897
 20
11.4442307692
 30
0.0
  0
VERTEX
  5
218
  8
SCAN
 10
32.275
 20
11.4442307692
 30
0.0
  0
VERTEX
  5
219
  8
SCAN
 10
32.275
 20
11.7583333333
 30
0.0
  0
VERTEX
  5
21A
  8
SCAN
 10
30.8895833333
 20
11.7583333333
 30
0.0
  0
VERTEX
  5
21B
  8
SCAN
 10
30.5724361581
 20
11.7448703919
 30
0.0
  0
VERTEX
  5
21C
  8
SCAN
 10
30.2601435889
 20
11.6898021843
 30
0.0
  0
VERTEX
  5
21D
  8
SCAN
 10
29.9781617191
 20
11.5472108101
 30
0.0
  0
VERTEX
  5
21E
  8
SCAN
 10
29.7477444503
 20
11.2563872685
 30
0.0
  0
VERTEX
  5
21F
  8
SCAN
 10
29.6724358974
 20
10.8924479167
 30
0.0
 42
0.2804124097235298
  0
VERTEX
  5
220
  8
SCAN
 10
30.29012419871631
 20
9.954346955124189
 30
0.0
 42
0.3472409609931174
  0
VERTEX
  5
221
  8
SCAN
 10
29.67243589748334
 20
9.140344551324054
 30
0.0
  0
VERTEX
  5
222
  8
SCAN
 10
29.7133847716
 20
8.8369344599
 30
0.0
  0
VERTEX
  5
223
  8
SCAN
 10
29.8021434295
 20
8.6131009615
 30
0.0
  0
VERTEX
  5
224
  8
SCAN
 10
29.9867769604
 20
8.3973435743
 30
0.0
  0
VERTEX
  5
225
  8
SCAN
 10
30.1618189103
 20
8.2583333333
 30
0.0
  0
VERTEX
  5
226
  8
SCAN
 10
29.7173076923
 20
8.2583333333
 30
0.0
  0
VERTEX
  5
227
  8
SCAN
 10
29.7173076923
 20
7.9442307692
 30
0.0
  0
SEQEND
  5
56B
  8
SCAN
  0
POLYLINE
  5
7C
  8
SCAN
 66
     1
 10
0.0
 20
0.0
 30
0.0
 70
     1
  0
VERTEX
  5
228
  8
SCAN
 10
32.275
 20
12.4762820513
 30
0.0
  0
VERTEX
  5
229
  8
SCAN
 10
32.275
 20
12.7903846154
 30
0.0
  0
VERTEX
  5
22A
  8
SCAN
 10
31.1987780449
 20
12.7903846154
 30
0.0
  0
VERTEX
  5
22B
  8
SCAN
 10
30.8895092825
 20
12.8024365632
 30
0.0
  0
VERTEX
  5
22C
  8
SCAN
 10
30.584810128
 20
12.8549039863
 30
0.0
  0
VERTEX
  5
22D
  8
SCAN
 10
30.3083539626
 20
12.9906725289
 30
0.0
  0
VERTEX
  5
22E
  8
SCAN
 10
30.074070055
 20
13.2669145955
 30
0.0
  0
VERTEX
  5
22F
  8
SCAN
 10
29.9865384615
 20
13.6177083333
 30
0.0
  0
VERTEX
  5
230
  8
SCAN
 10
30.068398834
 20
13.937030559
 30
0.0
  0
VERTEX
  5
231
  8
SCAN
 10
30.1744664313
 20
14.0651660886
 30
0.0
  0
VERTEX
  5
232
  8
SCAN
 10
30.3149257054
 20
14.1539188777
 30
0.0
  0
VERTEX
  5
233
  8
SCAN
 10
30.6411563987
 20
14.215883799
 30
0.0
  0
VERTEX
  5
234
  8
SCAN
 10
30.9744190705
 20
14.2262820513
 30
0.0
  0
VERTEX
  5
235
  8
SCAN
 10
32.275
 20
14.2262820513
 30
0.0
  0
VERTEX
  5
236
  8
SCAN
 10
32.275
 20
14.5403846154
 30
0.0
  0
VERTEX
  5
237
  8
SCAN
 10
31.2801081731
 20
14.5403846154
 30
0.0
  0
VERTEX
  5
238
  8
SCAN
 10
30.9898163311
 20
14.5481351232
 30
0.0
  0
VERTEX
  5
239
  8
SCAN
 10
30.701241878
 20
14.5798323207
 30
0.0
  0
VERTEX
  5
23A
  8
SCAN
 10
30.4253299436
 20
14.6668712617
 30
0.0
  0
VERTEX
  5
23B
  8
SCAN
 10
30.2460852324
 20
14.7899094823
 30
0.0
  0
VERTEX
  5
23C
  8
SCAN
 10
30.1068381621
 20
14.9568214994
 30
0.0
  0
VERTEX
  5
23D
  8
SCAN
 10
30.0166601804
 20
15.1545680992
 30
0.0
  0
VERTEX
  5
23E
  8
SCAN
 10
29.9865384615
 20
15.3698116987
 30
0.0
  0
VERTEX
  5
23F
  8
SCAN
 10
30.0556871677
 20
15.6723274963
 30
0.0
  0
VERTEX
  5
240
  8
SCAN
 10
30.1475868919
 20
15.7987339839
 30
0.0
  0
VERTEX
  5
241
  8
SCAN
 10
30.2724584606
 20
15.8924498794
 30
0.0
  0
VERTEX
  5
242
  8
SCAN
 10
30.5752354653
 20
15.9645626282
 30
0.0
  0
VERTEX
  5
243
  8
SCAN
 10
30.8881810897
 20
15.9762820513
 30
0.0
  0
VERTEX
  5
244
  8
SCAN
 10
32.275
 20
15.9762820513
 30
0.0
  0
VERTEX
  5
245
  8
SCAN
 10
32.275
 20
16.2903846154
 30
0.0
  0
VERTEX
  5
246
  8
SCAN
 10
30.8895833333
 20
16.2903846154
 30
0.0
  0
VERTEX
  5
247
  8
SCAN
 10
30.5724361581
 20
16.2769216739
 30
0.0
  0
VERTEX
  5
248
  8
SCAN
 10
30.2601435889
 20
16.2218534664
 30
0.0
  0
VERTEX
  5
249
  8
SCAN
 10
29.9781617191
 20
16.0792620922
 30
0.0
  0
VERTEX
  5
24A
  8
SCAN
 10
29.7477444503
 20
15.7884385506
 30
0.0
  0
VERTEX
  5
24B
  8
SCAN
 10
29.6724358974
 20
15.4244991987
 30
0.0
 42
0.2804124097235285
  0
VERTEX
  5
24C
  8
SCAN
 10
30.29012419871631
 20
14.48639823722419
 30
0.0
 42
0.3472409609931242
  0
VERTEX
  5
24D
  8
SCAN
 10
29.67243589748337
 20
13.67239583332405
 30
0.0
  0
VERTEX
  5
24E
  8
SCAN
 10
29.7133847716
 20
13.368985742
 30
0.0
  0
VERTEX
  5
24F
  8
SCAN
 10
29.8021434295
 20
13.1451522436
 30
0.0
  0
VERTEX
  5
250
  8
SCAN
 10
29.9867769604
 20
12.9293948563
 30
0.0
  0
VERTEX
  5
251
  8
SCAN
 10
30.1618189103
 20
12.7903846154
 30
0.0
  0
VERTEX
  5
252
  8
SCAN
 10
29.7173076923
 20
12.7903846154
 30
0.0
  0
VERTEX
  5
253
  8
SCAN
 10
29.7173076923
 20
12.4762820513
 30
0.0
  0
SEQEND
  5
56C
  8
SCAN
  0
POLYLINE
  5
7D
  8
SCAN
 66
     1
 10
0.0
 20
0.0
 30
0.0
 70
     1
  0
VERTEX
  5
254
  8
SCAN
 10
37.133974359
 20
3.3737179487
 30
0.0
  0
VERTEX
  5
255
  8
SCAN
 10
37.133974359
 20
3.9121794872
 30
0.0
  0
VERTEX
  5
256
  8
SCAN
 10
40.275
 20
3.9121794872
 30
0.0
  0
VERTEX
  5
257
  8
SCAN
 10
40.275
 20
4.2262820513
 30
0.0
  0
VERTEX
  5
258
  8
SCAN
 10
36.775
 20
4.2262820513
 30
0.0
  0
VERTEX
  5
259
  8
SCAN
 10
36.775
 20
3.5791466346
 30
0.0
  0
SEQEND
  5
56D
  8
SCAN
  0
POLYLINE
  5
7E
  8
SCAN
 66
     1
 10
0.0
 20
0.0
 30
0.0
 70
     1
  0
VERTEX
  5
25A
  8
SCAN
 10
38.78862179488461
 20
7.368008814078044
 30
0.0
 42
0.1510702871105702
  0
VERTEX
  5
25B
  8
SCAN
 10
37.76077724358666
 20
7.771153846107859
 30
0.0
 42
0.4202871594177903
  0
VERTEX
  5
25C
  8
SCAN
 10
36.68525641026796
 20
6.686518429440635
 30
0.0
 42
0.4232069261146841
  0
VERTEX
  5
25D
  8
SCAN
 10
37.75727163465206
 20
5.572435897395085
 30
0.0
 42
0.4221836033480525
  0
VERTEX
  5
25E
  8
SCAN
 10
38.79423076918912
 20
6.644451121787658
 30
0.0
  0
VERTEX
  5
25F
  8
SCAN
 10
38.7859585337
 20
6.8510581453
 30
0.0
  0
VERTEX
  5
260
  8
SCAN
 10
38.767588141
 20
7.0125400641
 30
0.0
  0
VERTEX
  5
261
  8
SCAN
 10
40.1901642628
 20
6.0393830128
 30
0.0
  0
VERTEX
  5
262
  8
SCAN
 10
40.3647435897
 20
6.2903846154
 30
0.0
  0
SEQEND
  5
56E
  8
SCAN
  0
POLYLINE
  5
7F
  8
SCAN
 66
     1
 10
0.0
 20
0.0
 30
0.0
 70
     1
  0
VERTEX
  5
263
  8
SCAN
 10
40.275
 20
8.4442307692
 30
0.0
  0
VERTEX
  5
264
  8
SCAN
 10
40.275
 20
8.7583333333
 30
0.0
  0
VERTEX
  5
265
  8
SCAN
 10
39.1987780449
 20
8.7583333333
 30
0.0
  0
VERTEX
  5
266
  8
SCAN
 10
38.8895092825
 20
8.7703852812
 30
0.0
  0
VERTEX
  5
267
  8
SCAN
 10
38.584810128
 20
8.8228527042
 30
0.0
  0
VERTEX
  5
268
  8
SCAN
 10
38.3083539626
 20
8.9586212468
 30
0.0
  0
VERTEX
  5
269
  8
SCAN
 10
38.074070055
 20
9.2348633134
 30
0.0
  0
VERTEX
  5
26A
  8
SCAN
 10
37.9865384615
 20
9.5856570513
 30
0.0
  0
VERTEX
  5
26B
  8
SCAN
 10
38.068398834
 20
9.9049792769
 30
0.0
  0
VERTEX
  5
26C
  8
SCAN
 10
38.1744664313
 20
10.0331148066
 30
0.0
  0
VERTEX
  5
26D
  8
SCAN
 10
38.3149257054
 20
10.1218675956
 30
0.0
  0
VERTEX
  5
26E
  8
SCAN
 10
38.6411563987
 20
10.183832517
 30
0.0
  0
VERTEX
  5
26F
  8
SCAN
 10
38.9744190705
 20
10.1942307692
 30
0.0
  0
VERTEX
  5
270
  8
SCAN
 10
40.275
 20
10.1942307692
 30
0.0
  0
VERTEX
  5
271
  8
SCAN
 10
40.275
 20
10.5083333333
 30
0.0
  0
VERTEX
  5
272
  8
SCAN
 10
39.2801081731
 20
10.5083333333
 30
0.0
  0
VERTEX
  5
273
  8
SCAN
 10
38.9898163311
 20
10.5160838411
 30
0.0
  0
VERTEX
  5
274
  8
SCAN
 10
38.701241878
 20
10.5477810387
 30
0.0
  0
VERTEX
  5
275
  8
SCAN
 10
38.4253299436
 20
10.6348199796
 30
0.0
  0
VERTEX
  5
276
  8
SCAN
 10
38.2460852324
 20
10.7578582003
 30
0.0
  0
VERTEX
  5
277
  8
SCAN
 10
38.1068381621
 20
10.9247702174
 30
0.0
  0
VERTEX
  5
278
  8
SCAN
 10
38.0166601804
 20
11.1225168172
 30
0.0
  0
VERTEX
  5
279
  8
SCAN
 10
37.9865384615
 20
11.3377604167
 30
0.0
  0
VERTEX
  5
27A
  8
SCAN
 10
38.0556871677
 20
11.6402762143
 30
0.0
  0
VERTEX
  5
27B
  8
SCAN
 10
38.1475868919
 20
11.7666827018
 30
0.0
  0
VERTEX
  5
27C
  8
SCAN
 10
38.2724584606
 20
11.8603985973
 30
0.0
  0
VERTEX
  5
27D
  8
SCAN
 10
38.5752354653
 20
11.9325113461
 30
0.0
  0
VERTEX
  5
27E
  8
SCAN
 10
38.8881810897
 20
11.9442307692
 30
0.0
  0
VERTEX
  5
27F
  8
SCAN
 10
40.275
 20
11.9442307692
 30
0.0
  0
VERTEX
  5
280
  8
SCAN
 10
40.275
 20
12.2583333333
 30
0.0
  0
VERTEX
  5
281
  8
SCAN
 10
38.8895833333
 20
12.2583333333
 30
0.0
  0
VERTEX
  5
282
  8
SCAN
 10
38.5724361581
 20
12.2448703919
 30
0.0
  0
VERTEX
  5
283
  8
SCAN
 10
38.2601435889
 20
12.1898021843
 30
0.0
  0
VERTEX
  5
284
  8
SCAN
 10
37.9781617191
 20
12.0472108101
 30
0.0
  0
VERTEX
  5
285
  8
SCAN
 10
37.7477444503
 20
11.7563872685
 30
0.0
  0
VERTEX
  5
286
  8
SCAN
 10
37.6724358974
 20
11.3924479167
 30
0.0
 42
0.2804124097235357
  0
VERTEX
  5
287
  8
SCAN
 10
38.29012419871632
 20
10.4543469551242
 30
0.0
 42
0.3472409609931138
  0
VERTEX
  5
288
  8
SCAN
 10
37.6724358974834
 20
9.640344551324056
 30
0.0
  0
VERTEX
  5
289
  8
SCAN
 10
37.7133847716
 20
9.3369344599
 30
0.0
  0
VERTEX
  5
28A
  8
SCAN
 10
37.8021434295
 20
9.1131009615
 30
0.0
  0
VERTEX
  5
28B
  8
SCAN
 10
37.9867769604
 20
8.8973435743
 30
0.0
  0
VERTEX
  5
28C
  8
SCAN
 10
38.1618189103
 20
8.7583333333
 30
0.0
  0
VERTEX
  5
28D
  8
SCAN
 10
37.7173076923
 20
8.7583333333
 30
0.0
  0
VERTEX
  5
28E
  8
SCAN
 10
37.7173076923
 20
8.4442307692
 30
0.0
  0
SEQEND
  5
56F
  8
SCAN
  0
POLYLINE
  5
80
  8
SCAN
 66
     1
 10
0.0
 20
0.0
 30
0.0
 70
     1
  0
VERTEX
  5
28F
  8
SCAN
 10
40.275
 20
12.9762820513
 30
0.0
  0
VERTEX
  5
290
  8
SCAN
 10
40.275
 20
13.2903846154
 30
0.0
  0
VERTEX
  5
291
  8
SCAN
 10
39.1987780449
 20
13.2903846154
 30
0.0
  0
VERTEX
  5
292
  8
SCAN
 10
38.8895092825
 20
13.3024365632
 30
0.0
  0
VERTEX
  5
293
  8
SCAN
 10
38.584810128
 20
13.3549039863
 30
0.0
  0
VERTEX
  5
294
  8
SCAN
 10
38.3083539626
 20
13.4906725289
 30
0.0
  0
VERTEX
  5
295
  8
SCAN
 10
38.074070055
 20
13.7669145955
 30
0.0
  0
VERTEX
  5
296
  8
SCAN
 10
37.9865384615
 20
14.1177083333
 30
0.0
  0
VERTEX
  5
297
  8
SCAN
 10
38.068398834
 20
14.437030559
 30
0.0
  0
VERTEX
  5
298
  8
SCAN
 10
38.1744664313
 20
14.5651660886
 30
0.0
  0
VERTEX
  5
299
  8
SCAN
 10
38.3149257054
 20
14.6539188777
 30
0.0
  0
VERTEX
  5
29A
  8
SCAN
 10
38.6411563987
 20
14.715883799
 30
0.0
  0
VERTEX
  5
29B
  8
SCAN
 10
38.9744190705
 20
14.7262820513
 30
0.0
  0
VERTEX
  5
29C
  8
SCAN
 10
40.275
 20
14.7262820513
 30
0.0
  0
VERTEX
  5
29D
  8
SCAN
 10
40.275
 20
15.0403846154
 30
0.0
  0
VERTEX
  5
29E
  8
SCAN
 10
39.2801081731
 20
15.0403846154
 30
0.0
  0
VERTEX
  5
29F
  8
SCAN
 10
38.9898163311
 20
15.0481351232
 30
0.0
  0
VERTEX
  5
2A0
  8
SCAN
 10
38.701241878
 20
15.0798323207
 30
0.0
  0
VERTEX
  5
2A1
  8
SCAN
 10
38.4253299436
 20
15.1668712617
 30
0.0
  0
VERTEX
  5
2A2
  8
SCAN
 10
38.2460852324
 20
15.2899094823
 30
0.0
  0
VERTEX
  5
2A3
  8
SCAN
 10
38.1068381621
 20
15.4568214994
 30
0.0
  0
VERTEX
  5
2A4
  8
SCAN
 10
38.0166601804
 20
15.6545680992
 30
0.0
  0
VERTEX
  5
2A5
  8
SCAN
 10
37.9865384615
 20
15.8698116987
 30
0.0
  0
VERTEX
  5
2A6
  8
SCAN
 10
38.0556871677
 20
16.1723274963
 30
0.0
  0
VERTEX
  5
2A7
  8
SCAN
 10
38.1475868919
 20
16.2987339839
 30
0.0
  0
VERTEX
  5
2A8
  8
SCAN
 10
38.2724584606
 20
16.3924498794
 30
0.0
  0
VERTEX
  5
2A9
  8
SCAN
 10
38.5752354653
 20
16.4645626282
 30
0.0
  0
VERTEX
  5
2AA
  8
SCAN
 10
38.8881810897
 20
16.4762820513
 30
0.0
  0
VERTEX
  5
2AB
  8
SCAN
 10
40.275
 20
16.4762820513
 30
0.0
  0
VERTEX
  5
2AC
  8
SCAN
 10
40.275
 20
16.7903846154
 30
0.0
  0
VERTEX
  5
2AD
  8
SCAN
 10
38.8895833333
 20
16.7903846154
 30
0.0
  0
VERTEX
  5
2AE
  8
SCAN
 10
38.5724361581
 20
16.7769216739
 30
0.0
  0
VERTEX
  5
2AF
  8
SCAN
 10
38.2601435889
 20
16.7218534664
 30
0.0
  0
VERTEX
  5
2B0
  8
SCAN
 10
37.9781617191
 20
16.5792620922
 30
0.0
  0
VERTEX
  5
2B1
  8
SCAN
 10
37.7477444503
 20
16.2884385506
 30
0.0
  0
VERTEX
  5
2B2
  8
SCAN
 10
37.6724358974
 20
15.9244991987
 30
0.0
 42
0.280412409723529
  0
VERTEX
  5
2B3
  8
SCAN
 10
38.29012419871633
 20
14.98639823722422
 30
0.0
 42
0.3472409609931124
  0
VERTEX
  5
2B4
  8
SCAN
 10
37.6724358974834
 20
14.17239583332405
 30
0.0
  0
VERTEX
  5
2B5
  8
SCAN
 10
37.7133847716
 20
13.868985742
 30
0.0
  0
VERTEX
  5
2B6
  8
SCAN
 10
37.8021434295
 20
13.6451522436
 30
0.0
  0
VERTEX
  5
2B7
  8
SCAN
 10
37.9867769604
 20
13.4293948563
 30
0.0
  0
VERTEX
  5
2B8
  8
SCAN
 10
38.1618189103
 20
13.2903846154
 30
0.0
  0
VERTEX
  5
2B9
  8
SCAN
 10
37.7173076923
 20
13.2903846154
 30
0.0
  0
VERTEX
  5
2BA
  8
SCAN
 10
37.7173076923
 20
12.9762820513
 30
0.0
  0
SEQEND
  5
570
  8
SCAN
  0
POLYLINE
  5
81
  8
SCAN
 66
     1
 10
0.0
 20
0.0
 30
0.0
 70
     1
  0
VERTEX
  5
2BB
  8
SCAN
 10
48.3647435897
 20
7.1977363782
 30
0.0
  0
VERTEX
  5
2BC
  8
SCAN
 10
48.3208996194
 20
7.5020377906
 30
0.0
  0
VERTEX
  5
2BD
  8
SCAN
 10
48.1890807289
 20
7.7798134618
 30
0.0
  0
VERTEX
  5
2BE
  8
SCAN
 10
47.9842920317
 20
8.0093354477
 30
0.0
  0
VERTEX
  5
2BF
  8
SCAN
 10
47.7273654645
 20
8.1789328419
 30
0.0
  0
VERTEX
  5
2C0
  8
SCAN
 10
47.1413280694
 20
8.3630445197
 30
0.0
  0
VERTEX
  5
2C1
  8
SCAN
 10
46.5264022436
 20
8.4057692308
 30
0.0
  0
VERTEX
  5
2C2
  8
SCAN
 10
45.9108221177
 20
8.3626461414
 30
0.0
  0
VERTEX
  5
2C3
  8
SCAN
 10
45.3240056681
 20
8.1786069285
 30
0.0
  0
VERTEX
  5
2C4
  8
SCAN
 10
45.0661412332
 20
8.0097050602
 30
0.0
  0
VERTEX
  5
2C5
  8
SCAN
 10
44.8602209432
 20
7.7807632492
 30
0.0
  0
VERTEX
  5
2C6
  8
SCAN
 10
44.7287803678
 20
7.502440386
 30
0.0
  0
VERTEX
  5
2C7
  8
SCAN
 10
44.6852564103
 20
7.1977363782
 30
0.0
  0
VERTEX
  5
2C8
  8
SCAN
 10
44.7294869565
 20
6.8954042915
 30
0.0
  0
VERTEX
  5
2C9
  8
SCAN
 10
44.8616910082
 20
6.6198961966
 30
0.0
  0
VERTEX
  5
2CA
  8
SCAN
 10
45.0686283269
 20
6.3949771219
 30
0.0
  0
VERTEX
  5
2CB
  8
SCAN
 10
45.3269711236
 20
6.2308197194
 30
0.0
  0
VERTEX
  5
2CC
  8
SCAN
 10
45.7131896833
 20
6.0992800152
 30
0.0
  0
VERTEX
  5
2CD
  8
SCAN
 10
46.1178638506
 20
6.0425450218
 30
0.0
  0
VERTEX
  5
2CE
  8
SCAN
 10
46.5264022436
 20
6.0275641026
 30
0.0
  0
VERTEX
  5
2CF
  8
SCAN
 10
46.9343432616
 20
6.0426946981
 30
0.0
  0
VERTEX
  5
2D0
  8
SCAN
 10
47.3382793685
 20
6.1007270908
 30
0.0
  0
VERTEX
  5
2D1
  8
SCAN
 10
47.7234596341
 20
6.233353068
 30
0.0
  0
VERTEX
  5
2D2
  8
SCAN
 10
47.9820650892
 20
6.3963468403
 30
0.0
  0
VERTEX
  5
2D3
  8
SCAN
 10
48.1889801894
 20
6.6206413754
 30
0.0
  0
VERTEX
  5
2D4
  8
SCAN
 10
48.3209641291
 20
6.8957421544
 30
0.0
  0
SEQEND
  5
571
  8
SCAN
  0
POLYLINE
  5
82
  8
SCAN
 66
     1
 10
0.0
 20
0.0
 30
0.0
 70
     1
  0
VERTEX
  5
2D5
  8
SCAN
 10
48.275
 20
8.9442307692
 30
0.0
  0
VERTEX
  5
2D6
  8
SCAN
 10
48.275
 20
9.2583333333
 30
0.0
  0
VERTEX
  5
2D7
  8
SCAN
 10
47.1987780449
 20
9.2583333333
 30
0.0
  0
VERTEX
  5
2D8
  8
SCAN
 10
46.8895092825
 20
9.2703852812
 30
0.0
  0
VERTEX
  5
2D9
  8
SCAN
 10
46.584810128
 20
9.3228527042
 30
0.0
  0
VERTEX
  5
2DA
  8
SCAN
 10
46.3083539626
 20
9.4586212468
 30
0.0
  0
VERTEX
  5
2DB
  8
SCAN
 10
46.074070055
 20
9.7348633134
 30
0.0
  0
VERTEX
  5
2DC
  8
SCAN
 10
45.9865384615
 20
10.0856570513
 30
0.0
  0
VERTEX
  5
2DD
  8
SCAN
 10
46.068398834
 20
10.4049792769
 30
0.0
  0
VERTEX
  5
2DE
  8
SCAN
 10
46.1744664313
 20
10.5331148066
 30
0.0
  0
VERTEX
  5
2DF
  8
SCAN
 10
46.3149257054
 20
10.6218675956
 30
0.0
  0
VERTEX
  5
2E0
  8
SCAN
 10
46.6411563987
 20
10.683832517
 30
0.0
  0
VERTEX
  5
2E1
  8
SCAN
 10
46.9744190705
 20
10.6942307692
 30
0.0
  0
VERTEX
  5
2E2
  8
SCAN
 10
48.275
 20
10.6942307692
 30
0.0
  0
VERTEX
  5
2E3
  8
SCAN
 10
48.275
 20
11.0083333333
 30
0.0
  0
VERTEX
  5
2E4
  8
SCAN
 10
47.2801081731
 20
11.0083333333
 30
0.0
  0
VERTEX
  5
2E5
  8
SCAN
 10
46.9898163311
 20
11.0160838411
 30
0.0
  0
VERTEX
  5
2E6
  8
SCAN
 10
46.701241878
 20
11.0477810387
 30
0.0
  0
VERTEX
  5
2E7
  8
SCAN
 10
46.4253299436
 20
11.1348199796
 30
0.0
  0
VERTEX
  5
2E8
  8
SCAN
 10
46.2460852324
 20
11.2578582003
 30
0.0
  0
VERTEX
  5
2E9
  8
SCAN
 10
46.1068381621
 20
11.4247702174
 30
0.0
  0
VERTEX
  5
2EA
  8
SCAN
 10
46.0166601804
 20
11.6225168172
 30
0.0
  0
VERTEX
  5
2EB
  8
SCAN
 10
45.9865384615
 20
11.8377604167
 30
0.0
  0
VERTEX
  5
2EC
  8
SCAN
 10
46.0556871677
 20
12.1402762143
 30
0.0
  0
VERTEX
  5
2ED
  8
SCAN
 10
46.1475868919
 20
12.2666827018
 30
0.0
  0
VERTEX
  5
2EE
  8
SCAN
 10
46.2724584606
 20
12.3603985973
 30
0.0
  0
VERTEX
  5
2EF
  8
SCAN
 10
46.5752354653
 20
12.4325113461
 30
0.0
  0
VERTEX
  5
2F0
  8
SCAN
 10
46.8881810897
 20
12.4442307692
 30
0.0
  0
VERTEX
  5
2F1
  8
SCAN
 10
48.275
 20
12.4442307692
 30
0.0
  0
VERTEX
  5
2F2
  8
SCAN
 10
48.275
 20
12.7583333333
 30
0.0
  0
VERTEX
  5
2F3
  8
SCAN
 10
46.8895833333
 20
12.7583333333
 30
0.0
  0
VERTEX
  5
2F4
  8
SCAN
 10
46.5724361581
 20
12.7448703919
 30
0.0
  0
VERTEX
  5
2F5
  8
SCAN
 10
46.2601435889
 20
12.6898021843
 30
0.0
  0
VERTEX
  5
2F6
  8
SCAN
 10
45.9781617191
 20
12.5472108101
 30
0.0
  0
VERTEX
  5
2F7
  8
SCAN
 10
45.7477444503
 20
12.2563872685
 30
0.0
  0
VERTEX
  5
2F8
  8
SCAN
 10
45.6724358974
 20
11.8924479167
 30
0.0
 42
0.280412409723529
  0
VERTEX
  5
2F9
  8
SCAN
 10
46.29012419871633
 20
10.95434695512422
 30
0.0
 42
0.3472409609931159
  0
VERTEX
  5
2FA
  8
SCAN
 10
45.67243589748339
 20
10.14034455132406
 30
0.0
  0
VERTEX
  5
2FB
  8
SCAN
 10
45.7133847716
 20
9.8369344599
 30
0.0
  0
VERTEX
  5
2FC
  8
SCAN
 10
45.8021434295
 20
9.6131009615
 30
0.0
  0
VERTEX
  5
2FD
  8
SCAN
 10
45.9867769604
 20
9.3973435743
 30
0.0
  0
VERTEX
  5
2FE
  8
SCAN
 10
46.1618189103
 20
9.2583333333
 30
0.0
  0
VERTEX
  5
2FF
  8
SCAN
 10
45.7173076923
 20
9.2583333333
 30
0.0
  0
VERTEX
  5
300
  8
SCAN
 10
45.7173076923
 20
8.9442307692
 30
0.0
  0
SEQEND
  5
572
  8
SCAN
  0
POLYLINE
  5
83
  8
SCAN
 66
     1
 10
0.0
 20
0.0
 30
0.0
 70
     1
  0
VERTEX
  5
301
  8
SCAN
 10
48.275
 20
13.4762820513
 30
0.0
  0
VERTEX
  5
302
  8
SCAN
 10
48.275
 20
13.7903846154
 30
0.0
  0
VERTEX
  5
303
  8
SCAN
 10
47.1987780449
 20
13.7903846154
 30
0.0
  0
VERTEX
  5
304
  8
SCAN
 10
46.8895092825
 20
13.8024365632
 30
0.0
  0
VERTEX
  5
305
  8
SCAN
 10
46.584810128
 20
13.8549039863
 30
0.0
  0
VERTEX
  5
306
  8
SCAN
 10
46.3083539626
 20
13.9906725289
 30
0.0
  0
VERTEX
  5
307
  8
SCAN
 10
46.074070055
 20
14.2669145955
 30
0.0
  0
VERTEX
  5
308
  8
SCAN
 10
45.9865384615
 20
14.6177083333
 30
0.0
  0
VERTEX
  5
309
  8
SCAN
 10
46.068398834
 20
14.937030559
 30
0.0
  0
VERTEX
  5
30A
  8
SCAN
 10
46.1744664313
 20
15.0651660886
 30
0.0
  0
VERTEX
  5
30B
  8
SCAN
 10
46.3149257054
 20
15.1539188777
 30
0.0
  0
VERTEX
  5
30C
  8
SCAN
 10
46.6411563987
 20
15.215883799
 30
0.0
  0
VERTEX
  5
30D
  8
SCAN
 10
46.9744190705
 20
15.2262820513
 30
0.0
  0
VERTEX
  5
30E
  8
SCAN
 10
48.275
 20
15.2262820513
 30
0.0
  0
VERTEX
  5
30F
  8
SCAN
 10
48.275
 20
15.5403846154
 30
0.0
  0
VERTEX
  5
310
  8
SCAN
 10
47.2801081731
 20
15.5403846154
 30
0.0
  0
VERTEX
  5
311
  8
SCAN
 10
46.9898163311
 20
15.5481351232
 30
0.0
  0
VERTEX
  5
312
  8
SCAN
 10
46.701241878
 20
15.5798323207
 30
0.0
  0
VERTEX
  5
313
  8
SCAN
 10
46.4253299436
 20
15.6668712617
 30
0.0
  0
VERTEX
  5
314
  8
SCAN
 10
46.2460852324
 20
15.7899094823
 30
0.0
  0
VERTEX
  5
315
  8
SCAN
 10
46.1068381621
 20
15.9568214994
 30
0.0
  0
VERTEX
  5
316
  8
SCAN
 10
46.0166601804
 20
16.1545680992
 30
0.0
  0
VERTEX
  5
317
  8
SCAN
 10
45.9865384615
 20
16.3698116987
 30
0.0
  0
VERTEX
  5
318
  8
SCAN
 10
46.0556871677
 20
16.6723274963
 30
0.0
  0
VERTEX
  5
319
  8
SCAN
 10
46.1475868919
 20
16.7987339839
 30
0.0
  0
VERTEX
  5
31A
  8
SCAN
 10
46.2724584606
 20
16.8924498794
 30
0.0
  0
VERTEX
  5
31B
  8
SCAN
 10
46.5752354653
 20
16.9645626282
 30
0.0
  0
VERTEX
  5
31C
  8
SCAN
 10
46.8881810897
 20
16.9762820513
 30
0.0
  0
VERTEX
  5
31D
  8
SCAN
 10
48.275
 20
16.9762820513
 30
0.0
  0
VERTEX
  5
31E
  8
SCAN
 10
48.275
 20
17.2903846154
 30
0.0
  0
VERTEX
  5
31F
  8
SCAN
 10
46.8895833333
 20
17.2903846154
 30
0.0
  0
VERTEX
  5
320
  8
SCAN
 10
46.5724361581
 20
17.2769216739
 30
0.0
  0
VERTEX
  5
321
  8
SCAN
 10
46.2601435889
 20
17.2218534664
 30
0.0
  0
VERTEX
  5
322
  8
SCAN
 10
45.9781617191
 20
17.0792620922
 30
0.0
  0
VERTEX
  5
323
  8
SCAN
 10
45.7477444503
 20
16.7884385506
 30
0.0
  0
VERTEX
  5
324
  8
SCAN
 10
45.6724358974
 20
16.4244991987
 30
0.0
 42
0.280412409723529
  0
VERTEX
  5
325
  8
SCAN
 10
46.29012419871633
 20
15.48639823722422
 30
0.0
 42
0.3472409609931202
  0
VERTEX
  5
326
  8
SCAN
 10
45.6724358974834
 20
14.67239583332405
 30
0.0
  0
VERTEX
  5
327
  8
SCAN
 10
45.7133847716
 20
14.368985742
 30
0.0
  0
VERTEX
  5
328
  8
SCAN
 10
45.8021434295
 20
14.1451522436
 30
0.0
  0
VERTEX
  5
329
  8
SCAN
 10
45.9867769604
 20
13.9293948563
 30
0.0
  0
VERTEX
  5
32A
  8
SCAN
 10
46.1618189103
 20
13.7903846154
 30
0.0
  0
VERTEX
  5
32B
  8
SCAN
 10
45.7173076923
 20
13.7903846154
 30
0.0
  0
VERTEX
  5
32C
  8
SCAN
 10
45.7173076923
 20
13.4762820513
 30
0.0
  0
SEQEND
  5
573
  8
SCAN
  0
POLYLINE
  5
84
  8
SCAN
 66
     1
 10
0.0
 20
0.0
 30
0.0
 70
     1
  0
VERTEX
  5
32D
  8
SCAN
 10
53.133974359
 20
7.066025641
 30
0.0
  0
VERTEX
  5
32E
  8
SCAN
 10
53.133974359
 20
7.6044871795
 30
0.0
  0
VERTEX
  5
32F
  8
SCAN
 10
56.275
 20
7.6044871795
 30
0.0
  0
VERTEX
  5
330
  8
SCAN
 10
56.275
 20
7.9185897436
 30
0.0
  0
VERTEX
  5
331
  8
SCAN
 10
52.775
 20
7.9185897436
 30
0.0
  0
VERTEX
  5
332
  8
SCAN
 10
52.775
 20
7.2714543269
 30
0.0
  0
SEQEND
  5
574
  8
SCAN
  0
POLYLINE
  5
85
  8
SCAN
 66
     1
 10
0.0
 20
0.0
 30
0.0
 70
     1
  0
VERTEX
  5
333
  8
SCAN
 10
56.275
 20
9.4442307692
 30
0.0
  0
VERTEX
  5
334
  8
SCAN
 10
56.275
 20
9.7583333333
 30
0.0
  0
VERTEX
  5
335
  8
SCAN
 10
55.1987780449
 20
9.7583333333
 30
0.0
  0
VERTEX
  5
336
  8
SCAN
 10
54.8895092825
 20
9.7703852812
 30
0.0
  0
VERTEX
  5
337
  8
SCAN
 10
54.584810128
 20
9.8228527042
 30
0.0
  0
VERTEX
  5
338
  8
SCAN
 10
54.3083539626
 20
9.9586212468
 30
0.0
  0
VERTEX
  5
339
  8
SCAN
 10
54.074070055
 20
10.2348633134
 30
0.0
  0
VERTEX
  5
33A
  8
SCAN
 10
53.9865384615
 20
10.5856570513
 30
0.0
  0
VERTEX
  5
33B
  8
SCAN
 10
54.068398834
 20
10.9049792769
 30
0.0
  0
VERTEX
  5
33C
  8
SCAN
 10
54.1744664313
 20
11.0331148066
 30
0.0
  0
VERTEX
  5
33D
  8
SCAN
 10
54.3149257054
 20
11.1218675956
 30
0.0
  0
VERTEX
  5
33E
  8
SCAN
 10
54.6411563987
 20
11.183832517
 30
0.0
  0
VERTEX
  5
33F
  8
SCAN
 10
54.9744190705
 20
11.1942307692
 30
0.0
  0
VERTEX
  5
340
  8
SCAN
 10
56.275
 20
11.1942307692
 30
0.0
  0
VERTEX
  5
341
  8
SCAN
 10
56.275
 20
11.5083333333
 30
0.0
  0
VERTEX
  5
342
  8
SCAN
 10
55.2801081731
 20
11.5083333333
 30
0.0
  0
VERTEX
  5
343
  8
SCAN
 10
54.9898163311
 20
11.5160838411
 30
0.0
  0
VERTEX
  5
344
  8
SCAN
 10
54.701241878
 20
11.5477810387
 30
0.0
  0
VERTEX
  5
345
  8
SCAN
 10
54.4253299436
 20
11.6348199796
 30
0.0
  0
VERTEX
  5
346
  8
SCAN
 10
54.2460852324
 20
11.7578582003
 30
0.0
  0
VERTEX
  5
347
  8
SCAN
 10
54.1068381621
 20
11.9247702174
 30
0.0
  0
VERTEX
  5
348
  8
SCAN
 10
54.0166601804
 20
12.1225168172
 30
0.0
  0
VERTEX
  5
349
  8
SCAN
 10
53.9865384615
 20
12.3377604167
 30
0.0
  0
VERTEX
  5
34A
  8
SCAN
 10
54.0556871677
 20
12.6402762143
 30
0.0
  0
VERTEX
  5
34B
  8
SCAN
 10
54.1475868919
 20
12.7666827018
 30
0.0
  0
VERTEX
  5
34C
  8
SCAN
 10
54.2724584606
 20
12.8603985973
 30
0.0
  0
VERTEX
  5
34D
  8
SCAN
 10
54.5752354653
 20
12.9325113461
 30
0.0
  0
VERTEX
  5
34E
  8
SCAN
 10
54.8881810897
 20
12.9442307692
 30
0.0
  0
VERTEX
  5
34F
  8
SCAN
 10
56.275
 20
12.9442307692
 30
0.0
  0
VERTEX
  5
350
  8
SCAN
 10
56.275
 20
13.2583333333
 30
0.0
  0
VERTEX
  5
351
  8
SCAN
 10
54.8895833333
 20
13.2583333333
 30
0.0
  0
VERTEX
  5
352
  8
SCAN
 10
54.5724361581
 20
13.2448703919
 30
0.0
  0
VERTEX
  5
353
  8
SCAN
 10
54.2601435889
 20
13.1898021843
 30
0.0
  0
VERTEX
  5
354
  8
SCAN
 10
53.9781617191
 20
13.0472108101
 30
0.0
  0
VERTEX
  5
355
  8
SCAN
 10
53.7477444503
 20
12.7563872685
 30
0.0
  0
VERTEX
  5
356
  8
SCAN
 10
53.6724358974
 20
12.3924479167
 30
0.0
 42
0.2804124097235277
  0
VERTEX
  5
357
  8
SCAN
 10
54.29012419871631
 20
11.45434695512419
 30
0.0
 42
0.3472409609931192
  0
VERTEX
  5
358
  8
SCAN
 10
53.67243589748338
 20
10.64034455132406
 30
0.0
  0
VERTEX
  5
359
  8
SCAN
 10
53.7133847716
 20
10.3369344599
 30
0.0
  0
VERTEX
  5
35A
  8
SCAN
 10
53.8021434295
 20
10.1131009615
 30
0.0
  0
VERTEX
  5
35B
  8
SCAN
 10
53.9867769604
 20
9.8973435743
 30
0.0
  0
VERTEX
  5
35C
  8
SCAN
 10
54.1618189103
 20
9.7583333333
 30
0.0
  0
VERTEX
  5
35D
  8
SCAN
 10
53.7173076923
 20
9.7583333333
 30
0.0
  0
VERTEX
  5
35E
  8
SCAN
 10
53.7173076923
 20
9.4442307692
 30
0.0
  0
SEQEND
  5
575
  8
SCAN
  0
POLYLINE
  5
86
  8
SCAN
 66
     1
 10
0.0
 20
0.0
 30
0.0
 70
     1
  0
VERTEX
  5
35F
  8
SCAN
 10
56.275
 20
13.9762820513
 30
0.0
  0
VERTEX
  5
360
  8
SCAN
 10
56.275
 20
14.2903846154
 30
0.0
  0
VERTEX
  5
361
  8
SCAN
 10
55.1987780449
 20
14.2903846154
 30
0.0
  0
VERTEX
  5
362
  8
SCAN
 10
54.8895092825
 20
14.3024365632
 30
0.0
  0
VERTEX
  5
363
  8
SCAN
 10
54.584810128
 20
14.3549039863
 30
0.0
  0
VERTEX
  5
364
  8
SCAN
 10
54.3083539626
 20
14.4906725289
 30
0.0
  0
VERTEX
  5
365
  8
SCAN
 10
54.074070055
 20
14.7669145955
 30
0.0
  0
VERTEX
  5
366
  8
SCAN
 10
53.9865384615
 20
15.1177083333
 30
0.0
  0
VERTEX
  5
367
  8
SCAN
 10
54.068398834
 20
15.437030559
 30
0.0
  0
VERTEX
  5
368
  8
SCAN
 10
54.1744664313
 20
15.5651660886
 30
0.0
  0
VERTEX
  5
369
  8
SCAN
 10
54.3149257054
 20
15.6539188777
 30
0.0
  0
VERTEX
  5
36A
  8
SCAN
 10
54.6411563987
 20
15.715883799
 30
0.0
  0
VERTEX
  5
36B
  8
SCAN
 10
54.9744190705
 20
15.7262820513
 30
0.0
  0
VERTEX
  5
36C
  8
SCAN
 10
56.275
 20
15.7262820513
 30
0.0
  0
VERTEX
  5
36D
  8
SCAN
 10
56.275
 20
16.0403846154
 30
0.0
  0
VERTEX
  5
36E
  8
SCAN
 10
55.2801081731
 20
16.0403846154
 30
0.0
  0
VERTEX
  5
36F
  8
SCAN
 10
54.9898163311
 20
16.0481351232
 30
0.0
  0
VERTEX
  5
370
  8
SCAN
 10
54.701241878
 20
16.0798323207
 30
0.0
  0
VERTEX
  5
371
  8
SCAN
 10
54.4253299436
 20
16.1668712617
 30
0.0
  0
VERTEX
  5
372
  8
SCAN
 10
54.2460852324
 20
16.2899094823
 30
0.0
  0
VERTEX
  5
373
  8
SCAN
 10
54.1068381621
 20
16.4568214994
 30
0.0
  0
VERTEX
  5
374
  8
SCAN
 10
54.0166601804
 20
16.6545680992
 30
0.0
  0
VERTEX
  5
375
  8
SCAN
 10
53.9865384615
 20
16.8698116987
 30
0.0
  0
VERTEX
  5
376
  8
SCAN
 10
54.0556871677
 20
17.1723274963
 30
0.0
  0
VERTEX
  5
377
  8
SCAN
 10
54.1475868919
 20
17.2987339839
 30
0.0
  0
VERTEX
  5
378
  8
SCAN
 10
54.2724584606
 20
17.3924498794
 30
0.0
  0
VERTEX
  5
379
  8
SCAN
 10
54.5752354653
 20
17.4645626282
 30
0.0
  0
VERTEX
  5
37A
  8
SCAN
 10
54.8881810897
 20
17.4762820513
 30
0.0
  0
VERTEX
  5
37B
  8
SCAN
 10
56.275
 20
17.4762820513
 30
0.0
  0
VERTEX
  5
37C
  8
SCAN
 10
56.275
 20
17.7903846154
 30
0.0
  0
VERTEX
  5
37D
  8
SCAN
 10
54.8895833333
 20
17.7903846154
 30
0.0
  0
VERTEX
  5
37E
  8
SCAN
 10
54.5724361581
 20
17.7769216739
 30
0.0
  0
VERTEX
  5
37F
  8
SCAN
 10
54.2601435889
 20
17.7218534664
 30
0.0
  0
VERTEX
  5
380
  8
SCAN
 10
53.9781617191
 20
17.5792620922
 30
0.0
  0
VERTEX
  5
381
  8
SCAN
 10
53.7477444503
 20
17.2884385506
 30
0.0
  0
VERTEX
  5
382
  8
SCAN
 10
53.6724358974
 20
16.9244991987
 30
0.0
 42
0.2804124097235281
  0
VERTEX
  5
383
  8
SCAN
 10
54.29012419871633
 20
15.98639823722422
 30
0.0
 42
0.3472409609931189
  0
VERTEX
  5
384
  8
SCAN
 10
53.67243589748337
 20
15.17239583332405
 30
0.0
  0
VERTEX
  5
385
  8
SCAN
 10
53.7133847716
 20
14.868985742
 30
0.0
  0
VERTEX
  5
386
  8
SCAN
 10
53.8021434295
 20
14.6451522436
 30
0.0
  0
VERTEX
  5
387
  8
SCAN
 10
53.9867769604
 20
14.4293948563
 30
0.0
  0
VERTEX
  5
388
  8
SCAN
 10
54.1618189103
 20
14.2903846154
 30
0.0
  0
VERTEX
  5
389
  8
SCAN
 10
53.7173076923
 20
14.2903846154
 30
0.0
  0
VERTEX
  5
38A
  8
SCAN
 10
53.7173076923
 20
13.9762820513
 30
0.0
  0
SEQEND
  5
576
  8
SCAN
  0
POLYLINE
  5
87
  8
SCAN
 66
     1
 10
0.0
 20
0.0
 30
0.0
 70
     1
  0
VERTEX
  5
38B
  8
SCAN
 10
64.275
 20
9.9442307692
 30
0.0
  0
VERTEX
  5
38C
  8
SCAN
 10
64.275
 20
10.2583333333
 30
0.0
  0
VERTEX
  5
38D
  8
SCAN
 10
63.1987780449
 20
10.2583333333
 30
0.0
  0
VERTEX
  5
38E
  8
SCAN
 10
62.8895092825
 20
10.2703852812
 30
0.0
  0
VERTEX
  5
38F
  8
SCAN
 10
62.584810128
 20
10.3228527042
 30
0.0
  0
VERTEX
  5
390
  8
SCAN
 10
62.3083539626
 20
10.4586212468
 30
0.0
  0
VERTEX
  5
391
  8
SCAN
 10
62.074070055
 20
10.7348633134
 30
0.0
  0
VERTEX
  5
392
  8
SCAN
 10
61.9865384615
 20
11.0856570513
 30
0.0
  0
VERTEX
  5
393
  8
SCAN
 10
62.068398834
 20
11.4049792769
 30
0.0
  0
VERTEX
  5
394
  8
SCAN
 10
62.1744664313
 20
11.5331148066
 30
0.0
  0
VERTEX
  5
395
  8
SCAN
 10
62.3149257054
 20
11.6218675956
 30
0.0
  0
VERTEX
  5
396
  8
SCAN
 10
62.6411563987
 20
11.683832517
 30
0.0
  0
VERTEX
  5
397
  8
SCAN
 10
62.9744190705
 20
11.6942307692
 30
0.0
  0
VERTEX
  5
398
  8
SCAN
 10
64.275
 20
11.6942307692
 30
0.0
  0
VERTEX
  5
399
  8
SCAN
 10
64.275
 20
12.0083333333
 30
0.0
  0
VERTEX
  5
39A
  8
SCAN
 10
63.2801081731
 20
12.0083333333
 30
0.0
  0
VERTEX
  5
39B
  8
SCAN
 10
62.9898163311
 20
12.0160838411
 30
0.0
  0
VERTEX
  5
39C
  8
SCAN
 10
62.701241878
 20
12.0477810387
 30
0.0
  0
VERTEX
  5
39D
  8
SCAN
 10
62.4253299436
 20
12.1348199796
 30
0.0
  0
VERTEX
  5
39E
  8
SCAN
 10
62.2460852324
 20
12.2578582003
 30
0.0
  0
VERTEX
  5
39F
  8
SCAN
 10
62.1068381621
 20
12.4247702174
 30
0.0
  0
VERTEX
  5
3A0
  8
SCAN
 10
62.0166601804
 20
12.6225168172
 30
0.0
  0
VERTEX
  5
3A1
  8
SCAN
 10
61.9865384615
 20
12.8377604167
 30
0.0
  0
VERTEX
  5
3A2
  8
SCAN
 10
62.0556871677
 20
13.1402762143
 30
0.0
  0
VERTEX
  5
3A3
  8
SCAN
 10
62.1475868919
 20
13.2666827018
 30
0.0
  0
VERTEX
  5
3A4
  8
SCAN
 10
62.2724584606
 20
13.3603985973
 30
0.0
  0
VERTEX
  5
3A5
  8
SCAN
 10
62.5752354653
 20
13.4325113461
 30
0.0
  0
VERTEX
  5
3A6
  8
SCAN
 10
62.8881810897
 20
13.4442307692
 30
0.0
  0
VERTEX
  5
3A7
  8
SCAN
 10
64.275
 20
13.4442307692
 30
0.0
  0
VERTEX
  5
3A8
  8
SCAN
 10
64.275
 20
13.7583333333
 30
0.0
  0
VERTEX
  5
3A9
  8
SCAN
 10
62.8895833333
 20
13.7583333333
 30
0.0
  0
VERTEX
  5
3AA
  8
SCAN
 10
62.5724361581
 20
13.7448703919
 30
0.0
  0
VERTEX
  5
3AB
  8
SCAN
 10
62.2601435889
 20
13.6898021843
 30
0.0
  0
VERTEX
  5
3AC
  8
SCAN
 10
61.9781617191
 20
13.5472108101
 30
0.0
  0
VERTEX
  5
3AD
  8
SCAN
 10
61.7477444503
 20
13.2563872685
 30
0.0
  0
VERTEX
  5
3AE
  8
SCAN
 10
61.6724358974
 20
12.8924479167
 30
0.0
 42
0.280412409723526
  0
VERTEX
  5
3AF
  8
SCAN
 10
62.29012419871635
 20
11.95434695512426
 30
0.0
 42
0.3472409609931159
  0
VERTEX
  5
3B0
  8
SCAN
 10
61.67243589748339
 20
11.14034455132406
 30
0.0
  0
VERTEX
  5
3B1
  8
SCAN
 10
61.7133847716
 20
10.8369344599
 30
0.0
  0
VERTEX
  5
3B2
  8
SCAN
 10
61.8021434295
 20
10.6131009615
 30
0.0
  0
VERTEX
  5
3B3
  8
SCAN
 10
61.9867769604
 20
10.3973435743
 30
0.0
  0
VERTEX
  5
3B4
  8
SCAN
 10
62.1618189103
 20
10.2583333333
 30
0.0
  0
VERTEX
  5
3B5
  8
SCAN
 10
61.7173076923
 20
10.2583333333
 30
0.0
  0
VERTEX
  5
3B6
  8
SCAN
 10
61.7173076923
 20
9.9442307692
 30
0.0
  0
SEQEND
  5
577
  8
SCAN
  0
POLYLINE
  5
88
  8
SCAN
 66
     1
 10
0.0
 20
0.0
 30
0.0
 70
     1
  0
VERTEX
  5
3B7
  8
SCAN
 10
64.275
 20
14.4762820513
 30
0.0
  0
VERTEX
  5
3B8
  8
SCAN
 10
64.275
 20
14.7903846154
 30
0.0
  0
VERTEX
  5
3B9
  8
SCAN
 10
63.1987780449
 20
14.7903846154
 30
0.0
  0
VERTEX
  5
3BA
  8
SCAN
 10
62.8895092825
 20
14.8024365632
 30
0.0
  0
VERTEX
  5
3BB
  8
SCAN
 10
62.584810128
 20
14.8549039863
 30
0.0
  0
VERTEX
  5
3BC
  8
SCAN
 10
62.3083539626
 20
14.9906725289
 30
0.0
  0
VERTEX
  5
3BD
  8
SCAN
 10
62.074070055
 20
15.2669145955
 30
0.0
  0
VERTEX
  5
3BE
  8
SCAN
 10
61.9865384615
 20
15.6177083333
 30
0.0
  0
VERTEX
  5
3BF
  8
SCAN
 10
62.068398834
 20
15.937030559
 30
0.0
  0
VERTEX
  5
3C0
  8
SCAN
 10
62.1744664313
 20
16.0651660886
 30
0.0
  0
VERTEX
  5
3C1
  8
SCAN
 10
62.3149257054
 20
16.1539188777
 30
0.0
  0
VERTEX
  5
3C2
  8
SCAN
 10
62.6411563987
 20
16.215883799
 30
0.0
  0
VERTEX
  5
3C3
  8
SCAN
 10
62.9744190705
 20
16.2262820513
 30
0.0
  0
VERTEX
  5
3C4
  8
SCAN
 10
64.275
 20
16.2262820513
 30
0.0
  0
VERTEX
  5
3C5
  8
SCAN
 10
64.275
 20
16.5403846154
 30
0.0
  0
VERTEX
  5
3C6
  8
SCAN
 10
63.2801081731
 20
16.5403846154
 30
0.0
  0
VERTEX
  5
3C7
  8
SCAN
 10
62.9898163311
 20
16.5481351232
 30
0.0
  0
VERTEX
  5
3C8
  8
SCAN
 10
62.701241878
 20
16.5798323207
 30
0.0
  0
VERTEX
  5
3C9
  8
SCAN
 10
62.4253299436
 20
16.6668712617
 30
0.0
  0
VERTEX
  5
3CA
  8
SCAN
 10
62.2460852324
 20
16.7899094823
 30
0.0
  0
VERTEX
  5
3CB
  8
SCAN
 10
62.1068381621
 20
16.9568214994
 30
0.0
  0
VERTEX
  5
3CC
  8
SCAN
 10
62.0166601804
 20
17.1545680992
 30
0.0
  0
VERTEX
  5
3CD
  8
SCAN
 10
61.9865384615
 20
17.3698116987
 30
0.0
  0
VERTEX
  5
3CE
  8
SCAN
 10
62.0556871677
 20
17.6723274963
 30
0.0
  0
VERTEX
  5
3CF
  8
SCAN
 10
62.1475868919
 20
17.7987339839
 30
0.0
  0
VERTEX
  5
3D0
  8
SCAN
 10
62.2724584606
 20
17.8924498794
 30
0.0
  0
VERTEX
  5
3D1
  8
SCAN
 10
62.5752354653
 20
17.9645626282
 30
0.0
  0
VERTEX
  5
3D2
  8
SCAN
 10
62.8881810897
 20
17.9762820513
 30
0.0
  0
VERTEX
  5
3D3
  8
SCAN
 10
64.275
 20
17.9762820513
 30
0.0
  0
VERTEX
  5
3D4
  8
SCAN
 10
64.275
 20
18.2903846154
 30
0.0
  0
VERTEX
  5
3D5
  8
SCAN
 10
62.8895833333
 20
18.2903846154
 30
0.0
  0
VERTEX
  5
3D6
  8
SCAN
 10
62.5724361581
 20
18.2769216739
 30
0.0
  0
VERTEX
  5
3D7
  8
SCAN
 10
62.2601435889
 20
18.2218534664
 30
0.0
  0
VERTEX
  5
3D8
  8
SCAN
 10
61.9781617191
 20
18.0792620922
 30
0.0
  0
VERTEX
  5
3D9
  8
SCAN
 10
61.7477444503
 20
17.7884385506
 30
0.0
  0
VERTEX
  5
3DA
  8
SCAN
 10
61.6724358974
 20
17.4244991987
 30
0.0
 42
0.2804124097235294
  0
VERTEX
  5
3DB
  8
SCAN
 10
62.29012419871634
 20
16.48639823722425
 30
0.0
 42
0.3472409609931202
  0
VERTEX
  5
3DC
  8
SCAN
 10
61.6724358974834
 20
15.67239583332405
 30
0.0
  0
VERTEX
  5
3DD
  8
SCAN
 10
61.7133847716
 20
15.368985742
 30
0.0
  0
VERTEX
  5
3DE
  8
SCAN
 10
61.8021434295
 20
15.1451522436
 30
0.0
  0
VERTEX
  5
3DF
  8
SCAN
 10
61.9867769604
 20
14.9293948563
 30
0.0
  0
VERTEX
  5
3E0
  8
SCAN
 10
62.1618189103
 20
14.7903846154
 30
0.0
  0
VERTEX
  5
3E1
  8
SCAN
 10
61.7173076923
 20
14.7903846154
 30
0.0
  0
VERTEX
  5
3E2
  8
SCAN
 10
61.7173076923
 20
14.4762820513
 30
0.0
  0
SEQEND
  5
578
  8
SCAN
  0
POLYLINE
  5
89
  8
SCAN
 66
     1
 10
0.0
 20
0.0
 30
0.0
 70
     1
  0
VERTEX
  5
3E3
  8
SCAN
 10
72.275
 20
10.4442307692
 30
0.0
  0
VERTEX
  5
3E4
  8
SCAN
 10
72.275
 20
10.7583333333
 30
0.0
  0
VERTEX
  5
3E5
  8
SCAN
 10
71.1987780449
 20
10.7583333333
 30
0.0
  0
VERTEX
  5
3E6
  8
SCAN
 10
70.8895092825
 20
10.7703852812
 30
0.0
  0
VERTEX
  5
3E7
  8
SCAN
 10
70.584810128
 20
10.8228527042
 30
0.0
  0
VERTEX
  5
3E8
  8
SCAN
 10
70.3083539626
 20
10.9586212468
 30
0.0
  0
VERTEX
  5
3E9
  8
SCAN
 10
70.074070055
 20
11.2348633134
 30
0.0
  0
VERTEX
  5
3EA
  8
SCAN
 10
69.9865384615
 20
11.5856570513
 30
0.0
  0
VERTEX
  5
3EB
  8
SCAN
 10
70.068398834
 20
11.9049792769
 30
0.0
  0
VERTEX
  5
3EC
  8
SCAN
 10
70.1744664313
 20
12.0331148066
 30
0.0
  0
VERTEX
  5
3ED
  8
SCAN
 10
70.3149257054
 20
12.1218675956
 30
0.0
  0
VERTEX
  5
3EE
  8
SCAN
 10
70.6411563987
 20
12.183832517
 30
0.0
  0
VERTEX
  5
3EF
  8
SCAN
 10
70.9744190705
 20
12.1942307692
 30
0.0
  0
VERTEX
  5
3F0
  8
SCAN
 10
72.275
 20
12.1942307692
 30
0.0
  0
VERTEX
  5
3F1
  8
SCAN
 10
72.275
 20
12.5083333333
 30
0.0
  0
VERTEX
  5
3F2
  8
SCAN
 10
71.2801081731
 20
12.5083333333
 30
0.0
  0
VERTEX
  5
3F3
  8
SCAN
 10
70.9898163311
 20
12.5160838411
 30
0.0
  0
VERTEX
  5
3F4
  8
SCAN
 10
70.701241878
 20
12.5477810387
 30
0.0
  0
VERTEX
  5
3F5
  8
SCAN
 10
70.4253299436
 20
12.6348199796
 30
0.0
  0
VERTEX
  5
3F6
  8
SCAN
 10
70.2460852324
 20
12.7578582003
 30
0.0
  0
VERTEX
  5
3F7
  8
SCAN
 10
70.1068381621
 20
12.9247702174
 30
0.0
  0
VERTEX
  5
3F8
  8
SCAN
 10
70.0166601804
 20
13.1225168172
 30
0.0
  0
VERTEX
  5
3F9
  8
SCAN
 10
69.9865384615
 20
13.3377604167
 30
0.0
  0
VERTEX
  5
3FA
  8
SCAN
 10
70.0556871677
 20
13.6402762143
 30
0.0
  0
VERTEX
  5
3FB
  8
SCAN
 10
70.1475868919
 20
13.7666827018
 30
0.0
  0
VERTEX
  5
3FC
  8
SCAN
 10
70.2724584606
 20
13.8603985973
 30
0.0
  0
VERTEX
  5
3FD
  8
SCAN
 10
70.5752354653
 20
13.9325113461
 30
0.0
  0
VERTEX
  5
3FE
  8
SCAN
 10
70.8881810897
 20
13.9442307692
 30
0.0
  0
VERTEX
  5
3FF
  8
SCAN
 10
72.275
 20
13.9442307692
 30
0.0
  0
VERTEX
  5
400
  8
SCAN
 10
72.275
 20
14.2583333333
 30
0.0
  0
VERTEX
  5
401
  8
SCAN
 10
70.8895833333
 20
14.2583333333
 30
0.0
  0
VERTEX
  5
402
  8
SCAN
 10
70.5724361581
 20
14.2448703919
 30
0.0
  0
VERTEX
  5
403
  8
SCAN
 10
70.2601435889
 20
14.1898021843
 30
0.0
  0
VERTEX
  5
404
  8
SCAN
 10
69.9781617191
 20
14.0472108101
 30
0.0
  0
VERTEX
  5
405
  8
SCAN
 10
69.7477444503
 20
13.7563872685
 30
0.0
  0
VERTEX
  5
406
  8
SCAN
 10
69.6724358974
 20
13.3924479167
 30
0.0
 42
0.2804124097235424
  0
VERTEX
  5
407
  8
SCAN
 10
70.29012419871633
 20
12.45434695512421
 30
0.0
 42
0.3472409609931193
  0
VERTEX
  5
408
  8
SCAN
 10
69.67243589748337
 20
11.64034455132406
 30
0.0
  0
VERTEX
  5
409
  8
SCAN
 10
69.7133847716
 20
11.3369344599
 30
0.0
  0
VERTEX
  5
40A
  8
SCAN
 10
69.8021434295
 20
11.1131009615
 30
0.0
  0
VERTEX
  5
40B
  8
SCAN
 10
69.9867769604
 20
10.8973435743
 30
0.0
  0
VERTEX
  5
40C
  8
SCAN
 10
70.1618189103
 20
10.7583333333
 30
0.0
  0
VERTEX
  5
40D
  8
SCAN
 10
69.7173076923
 20
10.7583333333
 30
0.0
  0
VERTEX
  5
40E
  8
SCAN
 10
69.7173076923
 20
10.4442307692
 30
0.0
  0
SEQEND
  5
579
  8
SCAN
  0
POLYLINE
  5
8A
  8
SCAN
 66
     1
 10
0.0
 20
0.0
 30
0.0
 70
     1
  0
VERTEX
  5
40F
  8
SCAN
 10
72.275
 20
14.9762820513
 30
0.0
  0
VERTEX
  5
410
  8
SCAN
 10
72.275
 20
15.2903846154
 30
0.0
  0
VERTEX
  5
411
  8
SCAN
 10
71.1987780449
 20
15.2903846154
 30
0.0
  0
VERTEX
  5
412
  8
SCAN
 10
70.8895092825
 20
15.3024365632
 30
0.0
  0
VERTEX
  5
413
  8
SCAN
 10
70.584810128
 20
15.3549039863
 30
0.0
  0
VERTEX
  5
414
  8
SCAN
 10
70.3083539626
 20
15.4906725289
 30
0.0
  0
VERTEX
  5
415
  8
SCAN
 10
70.074070055
 20
15.7669145955
 30
0.0
  0
VERTEX
  5
416
  8
SCAN
 10
69.9865384615
 20
16.1177083333
 30
0.0
  0
VERTEX
  5
417
  8
SCAN
 10
70.068398834
 20
16.437030559
 30
0.0
  0
VERTEX
  5
418
  8
SCAN
 10
70.1744664313
 20
16.5651660886
 30
0.0
  0
VERTEX
  5
419
  8
SCAN
 10
70.3149257054
 20
16.6539188777
 30
0.0
  0
VERTEX
  5
41A
  8
SCAN
 10
70.6411563987
 20
16.715883799
 30
0.0
  0
VERTEX
  5
41B
  8
SCAN
 10
70.9744190705
 20
16.7262820513
 30
0.0
  0
VERTEX
  5
41C
  8
SCAN
 10
72.275
 20
16.7262820513
 30
0.0
  0
VERTEX
  5
41D
  8
SCAN
 10
72.275
 20
17.0403846154
 30
0.0
  0
VERTEX
  5
41E
  8
SCAN
 10
71.2801081731
 20
17.0403846154
 30
0.0
  0
VERTEX
  5
41F
  8
SCAN
 10
70.9898163311
 20
17.0481351232
 30
0.0
  0
VERTEX
  5
420
  8
SCAN
 10
70.701241878
 20
17.0798323207
 30
0.0
  0
VERTEX
  5
421
  8
SCAN
 10
70.4253299436
 20
17.1668712617
 30
0.0
  0
VERTEX
  5
422
  8
SCAN
 10
70.2460852324
 20
17.2899094823
 30
0.0
  0
VERTEX
  5
423
  8
SCAN
 10
70.1068381621
 20
17.4568214994
 30
0.0
  0
VERTEX
  5
424
  8
SCAN
 10
70.0166601804
 20
17.6545680992
 30
0.0
  0
VERTEX
  5
425
  8
SCAN
 10
69.9865384615
 20
17.8698116987
 30
0.0
  0
VERTEX
  5
426
  8
SCAN
 10
70.0556871677
 20
18.1723274963
 30
0.0
  0
VERTEX
  5
427
  8
SCAN
 10
70.1475868919
 20
18.2987339839
 30
0.0
  0
VERTEX
  5
428
  8
SCAN
 10
70.2724584606
 20
18.3924498794
 30
0.0
  0
VERTEX
  5
429
  8
SCAN
 10
70.5752354653
 20
18.4645626282
 30
0.0
  0
VERTEX
  5
42A
  8
SCAN
 10
70.8881810897
 20
18.4762820513
 30
0.0
  0
VERTEX
  5
42B
  8
SCAN
 10
72.275
 20
18.4762820513
 30
0.0
  0
VERTEX
  5
42C
  8
SCAN
 10
72.275
 20
18.7903846154
 30
0.0
  0
VERTEX
  5
42D
  8
SCAN
 10
70.8895833333
 20
18.7903846154
 30
0.0
  0
VERTEX
  5
42E
  8
SCAN
 10
70.5724361581
 20
18.7769216739
 30
0.0
  0
VERTEX
  5
42F
  8
SCAN
 10
70.2601435889
 20
18.7218534664
 30
0.0
  0
VERTEX
  5
430
  8
SCAN
 10
69.9781617191
 20
18.5792620922
 30
0.0
  0
VERTEX
  5
431
  8
SCAN
 10
69.7477444503
 20
18.2884385506
 30
0.0
  0
VERTEX
  5
432
  8
SCAN
 10
69.6724358974
 20
17.9244991987
 30
0.0
 42
0.2804124097235238
  0
VERTEX
  5
433
  8
SCAN
 10
70.2901241987163
 20
16.98639823722417
 30
0.0
 42
0.3472409609931207
  0
VERTEX
  5
434
  8
SCAN
 10
69.67243589748337
 20
16.17239583332406
 30
0.0
  0
VERTEX
  5
435
  8
SCAN
 10
69.7133847716
 20
15.868985742
 30
0.0
  0
VERTEX
  5
436
  8
SCAN
 10
69.8021434295
 20
15.6451522436
 30
0.0
  0
VERTEX
  5
437
  8
SCAN
 10
69.9867769604
 20
15.4293948563
 30
0.0
  0
VERTEX
  5
438
  8
SCAN
 10
70.1618189103
 20
15.2903846154
 30
0.0
  0
VERTEX
  5
439
  8
SCAN
 10
69.7173076923
 20
15.2903846154
 30
0.0
  0
VERTEX
  5
43A
  8
SCAN
 10
69.7173076923
 20
14.9762820513
 30
0.0
  0
SEQEND
  5
57A
  8
SCAN
  0
POLYLINE
  5
8B
  8
SCAN
 66
     1
 10
0.0
 20
0.0
 30
0.0
 70
     1
  0
VERTEX
  5
43B
  8
SCAN
 10
79.4673076923
 20
8.0275641026
 30
0.0
  0
VERTEX
  5
43C
  8
SCAN
 10
79.4673076923
 20
9.6878205128
 30
0.0
  0
VERTEX
  5
43D
  8
SCAN
 10
80.275
 20
9.6878205128
 30
0.0
  0
VERTEX
  5
43E
  8
SCAN
 10
80.275
 20
10.0019230769
 30
0.0
  0
VERTEX
  5
43F
  8
SCAN
 10
79.4673076923
 20
10.0019230769
 30
0.0
  0
VERTEX
  5
440
  8
SCAN
 10
79.4673076923
 20
10.4057692308
 30
0.0
  0
VERTEX
  5
441
  8
SCAN
 10
79.1083333333
 20
10.4057692308
 30
0.0
  0
VERTEX
  5
442
  8
SCAN
 10
79.1083333333
 20
10.0019230769
 30
0.0
  0
VERTEX
  5
443
  8
SCAN
 10
76.6852564103
 20
10.0019230769
 30
0.0
  0
VERTEX
  5
444
  8
SCAN
 10
76.6852564103
 20
9.9381209936
 30
0.0
  0
SEQEND
  5
57B
  8
SCAN
  0
POLYLINE
  5
8C
  8
SCAN
 66
     1
 10
0.0
 20
0.0
 30
0.0
 70
     1
  0
VERTEX
  5
445
  8
SCAN
 10
80.275
 20
10.9442307692
 30
0.0
  0
VERTEX
  5
446
  8
SCAN
 10
80.275
 20
11.2583333333
 30
0.0
  0
VERTEX
  5
447
  8
SCAN
 10
79.1987780449
 20
11.2583333333
 30
0.0
  0
VERTEX
  5
448
  8
SCAN
 10
78.8895092825
 20
11.2703852812
 30
0.0
  0
VERTEX
  5
449
  8
SCAN
 10
78.584810128
 20
11.3228527042
 30
0.0
  0
VERTEX
  5
44A
  8
SCAN
 10
78.3083539626
 20
11.4586212468
 30
0.0
  0
VERTEX
  5
44B
  8
SCAN
 10
78.074070055
 20
11.7348633134
 30
0.0
  0
VERTEX
  5
44C
  8
SCAN
 10
77.9865384615
 20
12.0856570513
 30
0.0
  0
VERTEX
  5
44D
  8
SCAN
 10
78.068398834
 20
12.4049792769
 30
0.0
  0
VERTEX
  5
44E
  8
SCAN
 10
78.1744664313
 20
12.5331148066
 30
0.0
  0
VERTEX
  5
44F
  8
SCAN
 10
78.3149257054
 20
12.6218675956
 30
0.0
  0
VERTEX
  5
450
  8
SCAN
 10
78.6411563987
 20
12.683832517
 30
0.0
  0
VERTEX
  5
451
  8
SCAN
 10
78.9744190705
 20
12.6942307692
 30
0.0
  0
VERTEX
  5
452
  8
SCAN
 10
80.275
 20
12.6942307692
 30
0.0
  0
VERTEX
  5
453
  8
SCAN
 10
80.275
 20
13.0083333333
 30
0.0
  0
VERTEX
  5
454
  8
SCAN
 10
79.2801081731
 20
13.0083333333
 30
0.0
  0
VERTEX
  5
455
  8
SCAN
 10
78.9898163311
 20
13.0160838411
 30
0.0
  0
VERTEX
  5
456
  8
SCAN
 10
78.701241878
 20
13.0477810387
 30
0.0
  0
VERTEX
  5
457
  8
SCAN
 10
78.4253299436
 20
13.1348199796
 30
0.0
  0
VERTEX
  5
458
  8
SCAN
 10
78.2460852324
 20
13.2578582003
 30
0.0
  0
VERTEX
  5
459
  8
SCAN
 10
78.1068381621
 20
13.4247702174
 30
0.0
  0
VERTEX
  5
45A
  8
SCAN
 10
78.0166601804
 20
13.6225168172
 30
0.0
  0
VERTEX
  5
45B
  8
SCAN
 10
77.9865384615
 20
13.8377604167
 30
0.0
  0
VERTEX
  5
45C
  8
SCAN
 10
78.0556871677
 20
14.1402762143
 30
0.0
  0
VERTEX
  5
45D
  8
SCAN
 10
78.1475868919
 20
14.2666827018
 30
0.0
  0
VERTEX
  5
45E
  8
SCAN
 10
78.2724584606
 20
14.3603985973
 30
0.0
  0
VERTEX
  5
45F
  8
SCAN
 10
78.5752354653
 20
14.4325113461
 30
0.0
  0
VERTEX
  5
460
  8
SCAN
 10
78.8881810897
 20
14.4442307692
 30
0.0
  0
VERTEX
  5
461
  8
SCAN
 10
80.275
 20
14.4442307692
 30
0.0
  0
VERTEX
  5
462
  8
SCAN
 10
80.275
 20
14.7583333333
 30
0.0
  0
VERTEX
  5
463
  8
SCAN
 10
78.8895833333
 20
14.7583333333
 30
0.0
  0
VERTEX
  5
464
  8
SCAN
 10
78.5724361581
 20
14.7448703919
 30
0.0
  0
VERTEX
  5
465
  8
SCAN
 10
78.2601435889
 20
14.6898021843
 30
0.0
  0
VERTEX
  5
466
  8
SCAN
 10
77.9781617191
 20
14.5472108101
 30
0.0
  0
VERTEX
  5
467
  8
SCAN
 10
77.7477444503
 20
14.2563872685
 30
0.0
  0
VERTEX
  5
468
  8
SCAN
 10
77.6724358974
 20
13.8924479167
 30
0.0
 42
0.2804124097235363
  0
VERTEX
  5
469
  8
SCAN
 10
78.29012419871633
 20
12.95434695512423
 30
0.0
 42
0.3472409609931193
  0
VERTEX
  5
46A
  8
SCAN
 10
77.67243589748337
 20
12.14034455132406
 30
0.0
  0
VERTEX
  5
46B
  8
SCAN
 10
77.7133847716
 20
11.8369344599
 30
0.0
  0
VERTEX
  5
46C
  8
SCAN
 10
77.8021434295
 20
11.6131009615
 30
0.0
  0
VERTEX
  5
46D
  8
SCAN
 10
77.9867769604
 20
11.3973435743
 30
0.0
  0
VERTEX
  5
46E
  8
SCAN
 10
78.1618189103
 20
11.2583333333
 30
0.0
  0
VERTEX
  5
46F
  8
SCAN
 10
77.7173076923
 20
11.2583333333
 30
0.0
  0
VERTEX
  5
470
  8
SCAN
 10
77.7173076923
 20
10.9442307692
 30
0.0
  0
SEQEND
  5
57C
  8
SCAN
  0
POLYLINE
  5
8D
  8
SCAN
 66
     1
 10
0.0
 20
0.0
 30
0.0
 70
     1
  0
VERTEX
  5
471
  8
SCAN
 10
15.31165865382271
 20
4.521153846176648
 30
0.0
 42
0.4192446669975807
  0
VERTEX
  5
472
  8
SCAN
 10
16.00576923076142
 20
5.283974358982962
 30
0.0
 42
0.4137734970453699
  0
VERTEX
  5
473
  8
SCAN
 10
15.31165865380849
 20
6.04679487182414
 30
0.0
 42
0.4191305537679144
  0
VERTEX
  5
474
  8
SCAN
 10
14.61474358972053
 20
5.256630608966918
 30
0.0
 42
0.4289255872238091
  0
SEQEND
  5
57D
  8
SCAN
  0
POLYLINE
  5
8E
  8
SCAN
 66
     1
 10
0.0
 20
0.0
 30
0.0
 70
     1
  0
VERTEX
  5
475
  8
SCAN
 10
31.2948317307422
 20
5.341666666656856
 30
0.0
 42
0.4284671715146247
  0
VERTEX
  5
476
  8
SCAN
 10
32.00576923074415
 20
6.215264423029527
 30
0.0
 42
0.4206854341674249
  0
VERTEX
  5
477
  8
SCAN
 10
31.2618790063703
 20
7.091666666638144
 30
0.0
 42
0.4080657278689255
  0
VERTEX
  5
478
  8
SCAN
 10
30.52499999995887
 20
6.235596955166665
 30
0.0
 42
0.4096011781424629
  0
SEQEND
  5
57E
  8
SCAN
  0
POLYLINE
  5
8F
  8
SCAN
 66
     1
 10
0.0
 20
0.0
 30
0.0
 70
     1
  0
VERTEX
  5
479
  8
SCAN
 10
29.58830128205787
 20
5.521153846176267
 30
0.0
 42
0.3946068875658384
  0
VERTEX
  5
47A
  8
SCAN
 10
30.16602564104869
 20
6.227884615394988
 30
0.0
 42
0.3973235372794423
  0
VERTEX
  5
47B
  8
SCAN
 10
29.58129006412504
 20
6.912179487149746
 30
0.0
 42
0.4215587528592143
  0
VERTEX
  5
47C
  8
SCAN
 10
29.04423076921217
 20
6.215264423097197
 30
0.0
 42
0.4044798473212737
  0
SEQEND
  5
57F
  8
SCAN
  0
POLYLINE
  5
90
  8
SCAN
 66
     1
 10
0.0
 20
0.0
 30
0.0
 70
     1
  0
VERTEX
  5
47D
  8
SCAN
 10
37.73974358976362
 20
7.45705128205822
 30
0.0
 42
0.4184987369833834
  0
VERTEX
  5
47E
  8
SCAN
 10
37.04423076922608
 20
6.67039262819325
 30
0.0
 42
0.4122802606628835
  0
VERTEX
  5
47F
  8
SCAN
 10
37.7397435896952
 20
5.886538461537515
 30
0.0
 42
0.4164315173167829
  0
VERTEX
  5
480
  8
SCAN
 10
38.43525641030531
 20
6.702644230791225
 30
0.0
 42
0.4293445853332204
  0
SEQEND
  5
580
  8
SCAN
  0
POLYLINE
  5
91
  8
SCAN
 66
     1
 10
0.0
 20
0.0
 30
0.0
 70
     1
  0
VERTEX
  5
481
  8
SCAN
 10
79.1083333333
 20
8.6445512821
 30
0.0
  0
VERTEX
  5
482
  8
SCAN
 10
77.5883012821
 20
9.6878205128
 30
0.0
  0
VERTEX
  5
483
  8
SCAN
 10
79.1083333333
 20
9.6878205128
 30
0.0
  0
SEQEND
  5
581
  8
SCAN
  0
POLYLINE
  5
92
  8
SCAN
 66
     1
 10
0.0
 20
0.0
 30
0.0
 70
     1
  0
VERTEX
  5
484
  8
SCAN
 10
77.8519230769
 20
5.783974359
 30
0.0
  0
VERTEX
  5
485
  8
SCAN
 10
77.85192307690207
 20
5.469871794866903
 30
0.0
 42
-0.4208903382510371
  0
VERTEX
  5
486
  8
SCAN
 10
76.68525641028604
 20
6.611298076896636
 30
0.0
 42
-0.4276443755114739
  0
VERTEX
  5
487
  8
SCAN
 10
77.7257211538489
 20
7.668589743581678
 30
0.0
 42
-0.1929191524910761
  0
VERTEX
  5
488
  8
SCAN
 10
78.9814302885
 20
6.9604567308
 30
0.0
  0
VERTEX
  5
489
  8
SCAN
 10
79.916025641
 20
6.084755609
 30
0.0
  0
VERTEX
  5
48A
  8
SCAN
 10
79.916025641
 20
7.7134615385
 30
0.0
  0
VERTEX
  5
48B
  8
SCAN
 10
80.275
 20
7.7134615385
 30
0.0
  0
VERTEX
  5
48C
  8
SCAN
 10
80.275
 20
5.3352564103
 30
0.0
  0
VERTEX
  5
48D
  8
SCAN
 10
78.82648237177341
 20
6.692628205114813
 30
0.0
 42
0.1935125995337843
  0
VERTEX
  5
48E
  8
SCAN
 10
77.75376602562919
 20
7.354487179483492
 30
0.0
 42
0.4193374245544856
  0
VERTEX
  5
48F
  8
SCAN
 10
77.04423076923185
 20
6.595172275620676
 30
0.0
 42
0.4219350173264759
  0
SEQEND
  5
582
  8
SCAN
  0
POLYLINE
  5
93
  8
SCAN
 66
     1
 10
0.0
 20
0.0
 30
0.0
 70
     1
  0
VERTEX
  5
490
  8
SCAN
 10
69.5826923077
 20
7.9762820513
 30
0.0
  0
VERTEX
  5
491
  8
SCAN
 10
69.58269230771485
 20
7.662179487163949
 30
0.0
 42
-0.3672951640858083
  0
VERTEX
  5
492
  8
SCAN
 10
68.68525641027942
 20
8.704046474345263
 30
0.0
 42
-0.4081202999019377
  0
VERTEX
  5
493
  8
SCAN
 10
69.59461137825367
 20
9.726282051300135
 30
0.0
 42
-0.2668114640592958
  0
VERTEX
  5
494
  8
SCAN
 10
70.3146634615
 20
9.3175280449
 30
0.0
  0
VERTEX
  5
495
  8
SCAN
 10
70.4218940547
 20
9.5030525118
 30
0.0
  0
VERTEX
  5
496
  8
SCAN
 10
70.6133413462
 20
9.6968349359
 30
0.0
  0
VERTEX
  5
497
  8
SCAN
 10
70.8689514201
 20
9.8400880121
 30
0.0
  0
VERTEX
  5
498
  8
SCAN
 10
71.2352363782285
 20
9.905769230766364
 30
0.0
 42
-0.4207374981884307
  0
VERTEX
  5
499
  8
SCAN
 10
72.36474358973932
 20
8.694931890995832
 30
0.0
 42
-0.393810795311794
  0
VERTEX
  5
49A
  8
SCAN
 10
71.3326923077
 20
7.5275641026
 30
0.0
  0
VERTEX
  5
49B
  8
SCAN
 10
71.3326923077
 20
7.8416666667
 30
0.0
  0
VERTEX
  5
49C
  8
SCAN
 10
71.5648642956
 20
7.9285789607
 30
0.0
  0
VERTEX
  5
49D
  8
SCAN
 10
71.8164663462
 20
8.1158052885
 30
0.0
  0
VERTEX
  5
49E
  8
SCAN
 10
71.9515132839
 20
8.355073398
 30
0.0
  0
VERTEX
  5
49F
  8
SCAN
 10
72.00576923079727
 20
8.70054086537123
 30
0.0
 42
0.4165891223713074
  0
VERTEX
  5
4A0
  8
SCAN
 10
71.26538461540484
 20
9.591666666662377
 30
0.0
  0
VERTEX
  5
4A1
  8
SCAN
 10
71.0851125143
 20
9.5652636009
 30
0.0
  0
VERTEX
  5
4A2
  8
SCAN
 10
70.9200096216
 20
9.4880718399
 30
0.0
  0
VERTEX
  5
4A3
  8
SCAN
 10
70.6725642897
 20
9.2240373119
 30
0.0
  0
VERTEX
  5
4A4
  8
SCAN
 10
70.5615442463
 20
8.8780014864
 30
0.0
  0
VERTEX
  5
4A5
  8
SCAN
 10
70.525
 20
8.5147435897
 30
0.0
  0
VERTEX
  5
4A6
  8
SCAN
 10
70.166025641
 20
8.5147435897
 30
0.0
  0
VERTEX
  5
4A7
  8
SCAN
 10
70.1382475961
 20
8.8075566804
 30
0.0
  0
VERTEX
  5
4A8
  8
SCAN
 10
70.0452136505
 20
9.0863502999
 30
0.0
  0
VERTEX
  5
4A9
  8
SCAN
 10
69.8668059601
 20
9.3175613256
 30
0.0
  0
VERTEX
  5
4AA
  8
SCAN
 10
69.7379840898
 20
9.3880143553
 30
0.0
  0
VERTEX
  5
4AB
  8
SCAN
 10
69.59320913459015
 20
9.412179487198152
 30
0.0
 42
0.4148495494649738
  0
VERTEX
  5
4AC
  8
SCAN
 10
69.0442307692187
 20
8.708253205150971
 30
0.0
 42
0.3323103210199989
  0
SEQEND
  5
583
  8
SCAN
  0
POLYLINE
  5
94
  8
SCAN
 66
     1
 10
0.0
 20
0.0
 30
0.0
 70
     1
  0
VERTEX
  5
4AD
  8
SCAN
 10
69.8519230769
 20
5.283974359
 30
0.0
  0
VERTEX
  5
4AE
  8
SCAN
 10
69.85192307690207
 20
4.969871794866911
 30
0.0
 42
-0.4208903382510331
  0
VERTEX
  5
4AF
  8
SCAN
 10
68.68525641028607
 20
6.111298076896637
 30
0.0
 42
-0.4276443755114805
  0
VERTEX
  5
4B0
  8
SCAN
 10
69.72572115384888
 20
7.168589743581595
 30
0.0
 42
-0.1929191524910719
  0
VERTEX
  5
4B1
  8
SCAN
 10
70.9814302885
 20
6.4604567308
 30
0.0
  0
VERTEX
  5
4B2
  8
SCAN
 10
71.916025641
 20
5.584755609
 30
0.0
  0
VERTEX
  5
4B3
  8
SCAN
 10
71.916025641
 20
7.2134615385
 30
0.0
  0
VERTEX
  5
4B4
  8
SCAN
 10
72.275
 20
7.2134615385
 30
0.0
  0
VERTEX
  5
4B5
  8
SCAN
 10
72.275
 20
4.8352564103
 30
0.0
  0
VERTEX
  5
4B6
  8
SCAN
 10
70.82648237177341
 20
6.192628205114814
 30
0.0
 42
0.1935125995337836
  0
VERTEX
  5
4B7
  8
SCAN
 10
69.75376602562919
 20
6.854487179483488
 30
0.0
 42
0.4193374245544806
  0
VERTEX
  5
4B8
  8
SCAN
 10
69.04423076923183
 20
6.095172275620676
 30
0.0
 42
0.4219350173264722
  0
SEQEND
  5
584
  8
SCAN
  0
POLYLINE
  5
95
  8
SCAN
 66
     1
 10
0.0
 20
0.0
 30
0.0
 70
     1
  0
VERTEX
  5
4B9
  8
SCAN
 10
61.8519230769
 20
7.4762820513
 30
0.0
  0
VERTEX
  5
4BA
  8
SCAN
 10
61.85192307690207
 20
7.162179487166933
 30
0.0
 42
-0.420890338251034
  0
VERTEX
  5
4BB
  8
SCAN
 10
60.68525641028604
 20
8.303605769196636
 30
0.0
 42
-0.4276443755114674
  0
VERTEX
  5
4BC
  8
SCAN
 10
61.72572115384889
 20
9.360897435881698
 30
0.0
 42
-0.1929191524910767
  0
VERTEX
  5
4BD
  8
SCAN
 10
62.9814302885
 20
8.6527644231
 30
0.0
  0
VERTEX
  5
4BE
  8
SCAN
 10
63.916025641
 20
7.7770633013
 30
0.0
  0
VERTEX
  5
4BF
  8
SCAN
 10
63.916025641
 20
9.4057692308
 30
0.0
  0
VERTEX
  5
4C0
  8
SCAN
 10
64.275
 20
9.4057692308
 30
0.0
  0
VERTEX
  5
4C1
  8
SCAN
 10
64.275
 20
7.0275641026
 30
0.0
  0
VERTEX
  5
4C2
  8
SCAN
 10
62.82648237177342
 20
8.384935897414813
 30
0.0
 42
0.1935125995337823
  0
VERTEX
  5
4C3
  8
SCAN
 10
61.7537660256292
 20
9.04679487178349
 30
0.0
 42
0.4193374245544765
  0
VERTEX
  5
4C4
  8
SCAN
 10
61.04423076923183
 20
8.287479967920676
 30
0.0
 42
0.4219350173264766
  0
SEQEND
  5
585
  8
SCAN
  0
POLYLINE
  5
96
  8
SCAN
 66
     1
 10
0.0
 20
0.0
 30
0.0
 70
     1
  0
VERTEX
  5
4C5
  8
SCAN
 10
61.8519230769
 20
4.783974359
 30
0.0
  0
VERTEX
  5
4C6
  8
SCAN
 10
61.85192307690207
 20
4.469871794866888
 30
0.0
 42
-0.4208903382510327
  0
VERTEX
  5
4C7
  8
SCAN
 10
60.68525641028604
 20
5.611298076896636
 30
0.0
 42
-0.4276443755114727
  0
VERTEX
  5
4C8
  8
SCAN
 10
61.72572115384889
 20
6.668589743581682
 30
0.0
 42
-0.1929191524910776
  0
VERTEX
  5
4C9
  8
SCAN
 10
62.9814302885
 20
5.9604567308
 30
0.0
  0
VERTEX
  5
4CA
  8
SCAN
 10
63.916025641
 20
5.084755609
 30
0.0
  0
VERTEX
  5
4CB
  8
SCAN
 10
63.916025641
 20
6.7134615385
 30
0.0
  0
VERTEX
  5
4CC
  8
SCAN
 10
64.275
 20
6.7134615385
 30
0.0
  0
VERTEX
  5
4CD
  8
SCAN
 10
64.275
 20
4.3352564103
 30
0.0
  0
VERTEX
  5
4CE
  8
SCAN
 10
62.82648237177343
 20
5.692628205114822
 30
0.0
 42
0.1935125995337834
  0
VERTEX
  5
4CF
  8
SCAN
 10
61.7537660256292
 20
6.354487179483505
 30
0.0
 42
0.4193374245544834
  0
VERTEX
  5
4D0
  8
SCAN
 10
61.04423076923185
 20
5.595172275620676
 30
0.0
 42
0.4219350173264778
  0
SEQEND
  5
586
  8
SCAN
  0
POLYLINE
  5
97
  8
SCAN
 66
     1
 10
0.0
 20
0.0
 30
0.0
 70
     1
  0
VERTEX
  5
4D1
  8
SCAN
 10
53.8519230769
 20
4.283974359
 30
0.0
  0
VERTEX
  5
4D2
  8
SCAN
 10
53.85192307690207
 20
3.969871794866921
 30
0.0
 42
-0.4208903382510356
  0
VERTEX
  5
4D3
  8
SCAN
 10
52.68525641028604
 20
5.111298076896636
 30
0.0
 42
-0.4276443755114746
  0
VERTEX
  5
4D4
  8
SCAN
 10
53.72572115384887
 20
6.168589743581599
 30
0.0
 42
-0.1929191524910761
  0
VERTEX
  5
4D5
  8
SCAN
 10
54.9814302885
 20
5.4604567308
 30
0.0
  0
VERTEX
  5
4D6
  8
SCAN
 10
55.916025641
 20
4.584755609
 30
0.0
  0
VERTEX
  5
4D7
  8
SCAN
 10
55.916025641
 20
6.2134615385
 30
0.0
  0
VERTEX
  5
4D8
  8
SCAN
 10
56.275
 20
6.2134615385
 30
0.0
  0
VERTEX
  5
4D9
  8
SCAN
 10
56.275
 20
3.8352564103
 30
0.0
  0
VERTEX
  5
4DA
  8
SCAN
 10
54.82648237177342
 20
5.192628205114815
 30
0.0
 42
0.1935125995337788
  0
VERTEX
  5
4DB
  8
SCAN
 10
53.7537660256292
 20
5.854487179483483
 30
0.0
 42
0.4193374245544841
  0
VERTEX
  5
4DC
  8
SCAN
 10
53.04423076923186
 20
5.095172275620677
 30
0.0
 42
0.4219350173264778
  0
SEQEND
  5
587
  8
SCAN
  0
POLYLINE
  5
98
  8
SCAN
 66
     1
 10
0.0
 20
0.0
 30
0.0
 70
     1
  0
VERTEX
  5
4DD
  8
SCAN
 10
45.0442307692
 20
7.2082532051
 30
0.0
  0
VERTEX
  5
4DE
  8
SCAN
 10
45.0856581775
 20
7.4439942454
 30
0.0
  0
VERTEX
  5
4DF
  8
SCAN
 10
45.2009727373
 20
7.6540547897
 30
0.0
  0
VERTEX
  5
4E0
  8
SCAN
 10
45.373542162
 20
7.8199622587
 30
0.0
  0
VERTEX
  5
4E1
  8
SCAN
 10
45.5832806822
 20
7.9363527654
 30
0.0
  0
VERTEX
  5
4E2
  8
SCAN
 10
46.0458880339
 20
8.0608898456
 30
0.0
  0
VERTEX
  5
4E3
  8
SCAN
 10
46.525
 20
8.0916666667
 30
0.0
  0
VERTEX
  5
4E4
  8
SCAN
 10
47.0239495053
 20
8.055343614
 30
0.0
  0
VERTEX
  5
4E5
  8
SCAN
 10
47.40490785259655
 20
7.959154647415597
 30
0.0
 42
-0.3297632241725268
  0
VERTEX
  5
4E6
  8
SCAN
 10
48.00576923079893
 20
7.208253205111487
 30
0.0
  0
VERTEX
  5
4E7
  8
SCAN
 10
47.9641691669
 20
6.9725314829
 30
0.0
  0
VERTEX
  5
4E8
  8
SCAN
 10
47.84984079
 20
6.7619611698
 30
0.0
  0
VERTEX
  5
4E9
  8
SCAN
 10
47.6796124945
 20
6.5935442514
 30
0.0
  0
VERTEX
  5
4EA
  8
SCAN
 10
47.4704403657
 20
6.4763090971
 30
0.0
  0
VERTEX
  5
4EB
  8
SCAN
 10
47.0047699993
 20
6.3649544313
 30
0.0
  0
VERTEX
  5
4EC
  8
SCAN
 10
46.525
 20
6.3416666667
 30
0.0
  0
VERTEX
  5
4ED
  8
SCAN
 10
46.0451039946
 20
6.3654685908
 30
0.0
  0
VERTEX
  5
4EE
  8
SCAN
 10
45.5790672876
 20
6.4760289881
 30
0.0
  0
VERTEX
  5
4EF
  8
SCAN
 10
45.3698875104
 20
6.5935170663
 30
0.0
  0
VERTEX
  5
4F0
  8
SCAN
 10
45.1991004284
 20
6.7614784067
 30
0.0
  0
VERTEX
  5
4F1
  8
SCAN
 10
45.0847352302
 20
6.9721758387
 30
0.0
  0
SEQEND
  5
588
  8
SCAN
  0
POLYLINE
  5
99
  8
SCAN
 66
     1
 10
0.0
 20
0.0
 30
0.0
 70
     1
  0
VERTEX
  5
4F2
  8
SCAN
 10
45.8519230769
 20
3.783974359
 30
0.0
  0
VERTEX
  5
4F3
  8
SCAN
 10
45.85192307690207
 20
3.469871794866917
 30
0.0
 42
-0.4208903382510316
  0
VERTEX
  5
4F4
  8
SCAN
 10
44.68525641028604
 20
4.611298076896636
 30
0.0
 42
-0.427644375511468
  0
VERTEX
  5
4F5
  8
SCAN
 10
45.72572115384887
 20
5.668589743581579
 30
0.0
 42
-0.1929191524910771
  0
VERTEX
  5
4F6
  8
SCAN
 10
46.9814302885
 20
4.9604567308
 30
0.0
  0
VERTEX
  5
4F7
  8
SCAN
 10
47.916025641
 20
4.084755609
 30
0.0
  0
VERTEX
  5
4F8
  8
SCAN
 10
47.916025641
 20
5.7134615385
 30
0.0
  0
VERTEX
  5
4F9
  8
SCAN
 10
48.275
 20
5.7134615385
 30
0.0
  0
VERTEX
  5
4FA
  8
SCAN
 10
48.275
 20
3.3352564103
 30
0.0
  0
VERTEX
  5
4FB
  8
SCAN
 10
46.82648237177342
 20
4.692628205114818
 30
0.0
 42
0.1935125995337806
  0
VERTEX
  5
4FC
  8
SCAN
 10
45.7537660256292
 20
5.354487179483499
 30
0.0
 42
0.4193374245544834
  0
VERTEX
  5
4FD
  8
SCAN
 10
45.04423076923185
 20
4.595172275620676
 30
0.0
 42
0.4219350173264728
  0
SEQEND
  5
589
  8
SCAN
  0
POLYLINE
  5
9A
  8
SCAN
 66
     1
 10
0.0
 20
0.0
 30
0.0
 70
     1
  0
VERTEX
  5
4FE
  8
SCAN
 10
4.775
 20
4.2903846154
 30
0.0
  0
VERTEX
  5
4FF
  8
SCAN
 10
4.775
 20
5.7262820513
 30
0.0
  0
VERTEX
  5
500
  8
SCAN
 10
5.133974359
 20
5.7262820513
 30
0.0
  0
VERTEX
  5
501
  8
SCAN
 10
5.133974359
 20
4.5357772436
 30
0.0
  0
VERTEX
  5
502
  8
SCAN
 10
6.0545472756
 20
4.3471754808
 30
0.0
  0
VERTEX
  5
503
  8
SCAN
 10
6.010343874
 20
4.5261976442
 30
0.0
  0
VERTEX
  5
504
  8
SCAN
 10
5.986538461544429
 20
4.759435096108171
 30
0.0
 42
-0.4341965565798361
  0
VERTEX
  5
505
  8
SCAN
 10
7.131470352527103
 20
5.860897435918599
 30
0.0
 42
-0.4311748991023834
  0
VERTEX
  5
506
  8
SCAN
 10
8.364743589724332
 20
4.640244390994717
 30
0.0
 42
-0.3935518400093367
  0
VERTEX
  5
507
  8
SCAN
 10
7.3775641026
 20
3.5724358974
 30
0.0
  0
VERTEX
  5
508
  8
SCAN
 10
7.377564102558861
 20
3.886538461510909
 30
0.0
 42
0.3746188472705627
  0
VERTEX
  5
509
  8
SCAN
 10
8.005769230724454
 20
4.658473557702552
 30
0.0
 42
0.4223958802265673
  0
VERTEX
  5
50A
  8
SCAN
 10
7.118149038454101
 20
5.546794871819021
 30
0.0
 42
0.4456252980730229
  0
VERTEX
  5
50B
  8
SCAN
 10
6.345512820521081
 20
4.702644230790002
 30
0.0
  0
VERTEX
  5
50C
  8
SCAN
 10
6.3892161699
 20
4.3557251755
 30
0.0
  0
VERTEX
  5
50D
  8
SCAN
 10
6.525
 20
3.9314102564
 30
0.0
  0
SEQEND
  5
58A
  8
SCAN
  0
POLYLINE
  5
9B
  8
SCAN
 66
     1
 10
0.0
 20
0.0
 30
0.0
 70
     1
  0
VERTEX
  5
50E
  8
SCAN
 10
80.275
 20
15.4762820513
 30
0.0
  0
VERTEX
  5
50F
  8
SCAN
 10
80.275
 20
15.7903846154
 30
0.0
  0
VERTEX
  5
510
  8
SCAN
 10
79.1987780449
 20
15.7903846154
 30
0.0
  0
VERTEX
  5
511
  8
SCAN
 10
78.8895092825
 20
15.8024365632
 30
0.0
  0
VERTEX
  5
512
  8
SCAN
 10
78.584810128
 20
15.8549039863
 30
0.0
  0
VERTEX
  5
513
  8
SCAN
 10
78.3083539626
 20
15.9906725289
 30
0.0
  0
VERTEX
  5
514
  8
SCAN
 10
78.074070055
 20
16.2669145955
 30
0.0
  0
VERTEX
  5
515
  8
SCAN
 10
77.9865384615
 20
16.6177083333
 30
0.0
  0
VERTEX
  5
516
  8
SCAN
 10
78.068398834
 20
16.937030559
 30
0.0
  0
VERTEX
  5
517
  8
SCAN
 10
78.1744664313
 20
17.0651660886
 30
0.0
  0
VERTEX
  5
518
  8
SCAN
 10
78.3149257054
 20
17.1539188777
 30
0.0
  0
VERTEX
  5
519
  8
SCAN
 10
78.6411563987
 20
17.215883799
 30
0.0
  0
VERTEX
  5
51A
  8
SCAN
 10
78.9744190705
 20
17.2262820513
 30
0.0
  0
VERTEX
  5
51B
  8
SCAN
 10
80.275
 20
17.2262820513
 30
0.0
  0
VERTEX
  5
51C
  8
SCAN
 10
80.275
 20
17.5403846154
 30
0.0
  0
VERTEX
  5
51D
  8
SCAN
 10
79.2801081731
 20
17.5403846154
 30
0.0
  0
VERTEX
  5
51E
  8
SCAN
 10
78.9898163311
 20
17.5481351232
 30
0.0
  0
VERTEX
  5
51F
  8
SCAN
 10
78.701241878
 20
17.5798323207
 30
0.0
  0
VERTEX
  5
520
  8
SCAN
 10
78.4253299436
 20
17.6668712617
 30
0.0
  0
VERTEX
  5
521
  8
SCAN
 10
78.2460852324
 20
17.7899094823
 30
0.0
  0
VERTEX
  5
522
  8
SCAN
 10
78.1068381621
 20
17.9568214994
 30
0.0
  0
VERTEX
  5
523
  8
SCAN
 10
78.0166601804
 20
18.1545680992
 30
0.0
  0
VERTEX
  5
524
  8
SCAN
 10
77.9865384615
 20
18.3698116987
 30
0.0
  0
VERTEX
  5
525
  8
SCAN
 10
78.0556871677
 20
18.6723274963
 30
0.0
  0
VERTEX
  5
526
  8
SCAN
 10
78.1475868919
 20
18.7987339839
 30
0.0
  0
VERTEX
  5
527
  8
SCAN
 10
78.2724584606
 20
18.8924498794
 30
0.0
  0
VERTEX
  5
528
  8
SCAN
 10
78.5752354653
 20
18.9645626282
 30
0.0
  0
VERTEX
  5
529
  8
SCAN
 10
78.8881810897
 20
18.9762820513
 30
0.0
  0
VERTEX
  5
52A
  8
SCAN
 10
80.275
 20
18.9762820513
 30
0.0
  0
VERTEX
  5
52B
  8
SCAN
 10
80.275
 20
19.2903846154
 30
0.0
  0
VERTEX
  5
52C
  8
SCAN
 10
78.8895833333
 20
19.2903846154
 30
0.0
  0
VERTEX
  5
52D
  8
SCAN
 10
78.5724361581
 20
19.2769216739
 30
0.0
  0
VERTEX
  5
52E
  8
SCAN
 10
78.2601435889
 20
19.2218534664
 30
0.0
  0
VERTEX
  5
52F
  8
SCAN
 10
77.9781617191
 20
19.0792620922
 30
0.0
  0
VERTEX
  5
530
  8
SCAN
 10
77.7477444503
 20
18.7884385506
 30
0.0
  0
VERTEX
  5
531
  8
SCAN
 10
77.6724358974
 20
18.4244991987
 30
0.0
 42
0.2804124097235225
  0
VERTEX
  5
532
  8
SCAN
 10
78.29012419871633
 20
17.48639823722421
 30
0.0
 42
0.3472409609931336
  0
VERTEX
  5
533
  8
SCAN
 10
77.67243589748338
 20
16.67239583332406
 30
0.0
  0
VERTEX
  5
534
  8
SCAN
 10
77.7133847716
 20
16.368985742
 30
0.0
  0
VERTEX
  5
535
  8
SCAN
 10
77.8021434295
 20
16.1451522436
 30
0.0
  0
VERTEX
  5
536
  8
SCAN
 10
77.9867769604
 20
15.9293948563
 30
0.0
  0
VERTEX
  5
537
  8
SCAN
 10
78.1618189103
 20
15.7903846154
 30
0.0
  0
VERTEX
  5
538
  8
SCAN
 10
77.7173076923
 20
15.7903846154
 30
0.0
  0
VERTEX
  5
539
  8
SCAN
 10
77.7173076923
 20
15.4762820513
 30
0.0
  0
SEQEND
  5
58B
  8
SCAN
  0
POLYLINE
  5
9C
  8
SCAN
 66
     1
 10
0.0
 20
0.0
 30
0.0
 70
     1
  0
VERTEX
  5
53A
  8
SCAN
 10
49.275
 20
19.025
 30
0.0
  0
VERTEX
  5
53B
  8
SCAN
 10
49.275
 20
20.525
 30
0.0
  0
VERTEX
  5
53C
  8
SCAN
 10
55.275
 20
20.525
 30
0.0
  0
VERTEX
  5
53D
  8
SCAN
 10
55.275
 20
19.025
 30
0.0
  0
SEQEND
  5
58C
  8
SCAN
  0
POLYLINE
  5
9D
  8
SCAN
 66
     1
 10
0.0
 20
0.0
 30
0.0
 70
     1
  0
VERTEX
  5
53E
  8
SCAN
 10
87.54052483978565
 20
21.7942307691995
 30
0.0
 42
0.422067410052744
  0
VERTEX
  5
53F
  8
SCAN
 10
88.42884615386257
 20
22.68185096151059
 30
0.0
 42
0.4460872552337603
  0
VERTEX
  5
540
  8
SCAN
 10
87.58469551280609
 20
23.45448717948135
 30
0.0
  0
VERTEX
  5
541
  8
SCAN
 10
87.2377764575
 20
23.4107838301
 30
0.0
  0
VERTEX
  5
542
  8
SCAN
 10
86.8134615385
 20
23.275
 30
0.0
  0
VERTEX
  5
543
  8
SCAN
 10
87.1724358974
 20
25.025
 30
0.0
  0
VERTEX
  5
544
  8
SCAN
 10
88.6083333333
 20
25.025
 30
0.0
  0
VERTEX
  5
545
  8
SCAN
 10
88.6083333333
 20
24.666025641
 30
0.0
  0
VERTEX
  5
546
  8
SCAN
 10
87.4178285256
 20
24.666025641
 30
0.0
  0
VERTEX
  5
547
  8
SCAN
 10
87.2292267628
 20
23.7454527244
 30
0.0
  0
VERTEX
  5
548
  8
SCAN
 10
87.4082489263
 20
23.789656126
 30
0.0
  0
VERTEX
  5
549
  8
SCAN
 10
87.64148637822885
 20
23.81346153843488
 30
0.0
 42
-0.4339122685369424
  0
VERTEX
  5
54A
  8
SCAN
 10
88.74294871797484
 20
22.66852964744974
 30
0.0
 42
-0.4313954915534584
  0
VERTEX
  5
54B
  8
SCAN
 10
87.52229567307967
 20
21.43525641028344
 30
0.0
 42
-0.3937795902222695
  0
VERTEX
  5
54C
  8
SCAN
 10
86.4544871795
 20
22.4224358974
 30
0.0
  0
VERTEX
  5
54D
  8
SCAN
 10
86.76858974359871
 20
22.42243589740897
 30
0.0
 42
0.3746092389163035
  0
SEQEND
  5
58D
  8
SCAN
  0
POLYLINE
  5
9E
  8
SCAN
 66
     1
 10
0.0
 20
0.0
 30
0.0
 70
     1
  0
VERTEX
  5
54E
  8
SCAN
 10
85.0746794872
 20
22.9735176282
 30
0.0
  0
VERTEX
  5
54F
  8
SCAN
 10
83.7173076923
 20
21.525
 30
0.0
  0
VERTEX
  5
550
  8
SCAN
 10
86.0955128205
 20
21.525
 30
0.0
  0
VERTEX
  5
551
  8
SCAN
 10
86.0955128205
 20
21.883974359
 30
0.0
  0
VERTEX
  5
552
  8
SCAN
 10
84.466806891
 20
21.883974359
 30
0.0
  0
VERTEX
  5
553
  8
SCAN
 10
85.3425080128
 20
22.8185697115
 30
0.0
 42
0.1929095980400311
  0
VERTEX
  5
554
  8
SCAN
 10
86.05064102562456
 20
24.07427884615503
 30
0.0
 42
0.4278596004009221
  0
VERTEX
  5
555
  8
SCAN
 10
84.99334935894885
 20
25.11474358970485
 30
0.0
 42
0.4208903382510385
  0
VERTEX
  5
556
  8
SCAN
 10
83.85192307696693
 20
23.94807692309793
 30
0.0
  0
VERTEX
  5
557
  8
SCAN
 10
84.1660256410083
 20
23.94807692308962
 30
0.0
 42
-0.4212779253996004
  0
VERTEX
  5
558
  8
SCAN
 10
84.97722355770836
 20
24.75576923075798
 30
0.0
 42
-0.4193374245544743
  0
VERTEX
  5
559
  8
SCAN
 10
85.73653846158355
 20
24.04623397437079
 30
0.0
 42
-0.1935125995337832
  0
SEQEND
  5
58E
  8
SCAN
  0
ENDSEC
  0
EOF
